<svg id="图层_1" data-name="图层 1" xmlns="http://www.w3.org/2000/svg" xmlns:xlink="http://www.w3.org/1999/xlink" viewBox="0 0 85 85"><defs><style>.cls-1{isolation:isolate;}.cls-2{fill:url(#未命名的渐变_46);}.cls-3{fill:url(#未命名的渐变_48);}.cls-4{fill:url(#未命名的渐变_55);}.cls-5{fill:#e8f2ff;}.cls-6{fill:#fff;}</style><linearGradient id="未命名的渐变_46" x1="21.73" y1="9.36" x2="42.31" y2="87.82" gradientUnits="userSpaceOnUse"><stop offset="0" stop-color="#70bdfb"/><stop offset="1" stop-color="#5768ff"/></linearGradient><linearGradient id="未命名的渐变_48" x1="63.59" y1="24.35" x2="63.59" y2="85" gradientUnits="userSpaceOnUse"><stop offset="0" stop-color="#5c8bff"/><stop offset="1" stop-color="#2b37d2"/></linearGradient><linearGradient id="未命名的渐变_55" x1="11" y1="18.27" x2="74.14" y2="18.27" gradientUnits="userSpaceOnUse"><stop offset="0" stop-color="#81c6f7"/><stop offset="1" stop-color="#6496fd"/></linearGradient></defs><title>APACHE</title><g class="cls-1"><polygon class="cls-2" points="53.18 36.53 53.04 85 10.86 60.65 11 12.18 53.18 36.53"/><polygon class="cls-3" points="53.18 36.53 74.14 24.35 74 72.82 53.04 85 53.18 36.53"/><polygon class="cls-4" points="11 12.18 31.96 0 74.14 24.35 53.18 36.53 11 12.18"/></g><g class="cls-1"><path class="cls-5" d="M11.5,13,52.68,36.82l-.13,47.32L11.36,60.36,11.5,13m-.5-.86-.14,48.47L53,85l.14-48.47L11,12.18Z"/><path class="cls-5" d="M73.63,25.22,73.5,72.53l-20,11.6.13-47.31,20-11.6m.5-.87-21,12.18L53,85,74,72.82l.14-48.47Z"/><path class="cls-5" d="M32,.58,73.14,24.35,53.18,36,12,12.18,32,.58M32,0,11,12.18,53.18,36.53l21-12.18L32,0Z"/></g><g class="cls-1"><path class="cls-6" d="M21.32,30.25a1.09,1.09,0,0,1,.45.62l1.46,5.22.26.14c2.6,1.5,6.36,5.58,8.94,9.47.56.83,1.16,1.87,1.8,3-.45-.23-.9-.48-1.33-.73-1.35-.78-2.44-1.53-2.46-1.54-.34-.2-.59-.09-.62.23a1.06,1.06,0,0,0,.13.55,1.2,1.2,0,0,0,.38.45c.09.06,1.16.8,2.51,1.58a25.24,25.24,0,0,0,2.35,1.21c.38.72.76,1.47,1.15,2.21a9,9,0,0,1-1.12-.38,18.23,18.23,0,0,1-2-1c-.32-.18-.57,0-.57.32a1.24,1.24,0,0,0,.56,1,14.23,14.23,0,0,0,3.89,1.59c1.53,3,3,6,4,7.71,1.69,2.93,2.28,3.66,2.09,4.43C41,64,37,59.55,33.09,54.56A66.11,66.11,0,0,1,24.16,38.2a1.3,1.3,0,0,0-.33-.52.92.92,0,0,0-.18-.13.52.52,0,0,0-.26-.08c-.27,0-.38.33-.26.72a67.45,67.45,0,0,0,9.36,17.14c3.8,4.83,7.67,9.19,9.94,11.66A7.2,7.2,0,0,1,40,66c-3.2-1.85-8.55-6.31-13.82-13.94-8-11.56-4.1-15.84-3.89-16.06l-1.46-5.25a.59.59,0,0,1,0-.43.25.25,0,0,1,.29-.13Z"/></g></svg>