<svg id="图层_1" data-name="图层 1" xmlns="http://www.w3.org/2000/svg" xmlns:xlink="http://www.w3.org/1999/xlink" viewBox="0 0 85 85"><defs><style>.cls-1{isolation:isolate;}.cls-2{fill:url(#未命名的渐变_55);}.cls-3{fill:url(#未命名的渐变_48);}.cls-4{fill:url(#未命名的渐变_46);}.cls-5{fill:#e8f2ff;}.cls-6{fill:aqua;}.cls-7{fill:#f3f8ff;}</style><linearGradient id="未命名的渐变_55" x1="0.55" y1="32.16" x2="84.5" y2="32.16" gradientUnits="userSpaceOnUse"><stop offset="0" stop-color="#81c6f7"/><stop offset="1" stop-color="#6496fd"/></linearGradient><linearGradient id="未命名的渐变_48" x1="73.02" y1="43.12" x2="73.02" y2="77.12" gradientUnits="userSpaceOnUse"><stop offset="0" stop-color="#5c8bff"/><stop offset="1" stop-color="#2b37d2"/></linearGradient><linearGradient id="未命名的渐变_46" x1="22.22" y1="15.51" x2="39.87" y2="82.81" gradientUnits="userSpaceOnUse"><stop offset="0" stop-color="#70bdfb"/><stop offset="1" stop-color="#5768ff"/></linearGradient></defs><title>BFSB</title><g class="cls-1"><polygon class="cls-2" points="84.5 43.12 61.59 56.43 0.55 21.19 23.46 7.88 84.5 43.12"/><polygon class="cls-3" points="84.5 43.12 84.45 63.81 61.54 77.12 61.59 56.43 84.5 43.12"/><polygon class="cls-4" points="61.59 56.43 61.54 77.12 0.5 41.88 0.55 21.19 61.59 56.43"/></g><g class="cls-1"><path class="cls-5" d="M23.46,8.43,83.54,43.12,61.59,55.88,1.51,21.19,23.46,8.43m0-.56L.55,21.19l61,35.24L84.5,43.12l-61-35.24Z"/><path class="cls-5" d="M84,44l0,19.57L62,76.28l0-19.57L84,44m.48-.84L61.59,56.43l0,20.69L84.45,63.81l0-20.69Z"/><path class="cls-5" d="M1,22,61.11,56.71l0,19.58L1,41.6,1,22m-.48-.83,0,20.69,61,35.24,0-20.69L.55,21.19Z"/></g><g class="cls-1"><polygon class="cls-6" points="56.93 54.05 56.81 65.92 53.58 63.99 53.7 52.17 56.93 54.05"/></g><g class="cls-1"><polygon class="cls-7" points="48.41 49.13 48.29 61 45.06 59.08 45.18 47.26 48.41 49.13"/></g><g class="cls-1"><polygon class="cls-7" points="40.14 44.37 40.02 56.25 36.79 54.32 36.91 42.5 40.14 44.37"/></g></svg>