<svg id="图层_1" data-name="图层 1" xmlns="http://www.w3.org/2000/svg" xmlns:xlink="http://www.w3.org/1999/xlink" viewBox="0 0 85 85"><defs><style>.cls-1{isolation:isolate;}.cls-2{fill:url(#未命名的渐变_48);}.cls-3{fill:url(#未命名的渐变_55);}.cls-4{fill:aqua;}.cls-5{fill:none;stroke:#e8f2ff;stroke-linecap:round;stroke-linejoin:round;stroke-width:0.5px;}.cls-6{fill:#e8f2ff;}.cls-7{fill:url(#未命名的渐变_48-2);}.cls-8{fill:url(#未命名的渐变_55-2);}</style><linearGradient id="未命名的渐变_48" x1="42.5" y1="43.61" x2="42.5" y2="85" gradientUnits="userSpaceOnUse"><stop offset="0" stop-color="#5c8bff"/><stop offset="1" stop-color="#2b37d2"/></linearGradient><linearGradient id="未命名的渐变_55" x1="6.11" y1="43.73" x2="79.21" y2="43.73" gradientUnits="userSpaceOnUse"><stop offset="0" stop-color="#81c6f7"/><stop offset="1" stop-color="#6496fd"/></linearGradient><linearGradient id="未命名的渐变_48-2" x1="42.5" y1="21.06" x2="42.5" y2="62.44" xlink:href="#未命名的渐变_48"/><linearGradient id="未命名的渐变_55-2" x1="6.11" y1="21.17" x2="79.21" y2="21.17" xlink:href="#未命名的渐变_55"/></defs><title>CCSB</title><g class="cls-1"><path class="cls-2" d="M78.88,64.26c0-.11,0-.21,0-.32l.32-20.12c0,.36-.06.71-.09,1.07s-.06.77-.13,1.15-.15.63-.24.94-.18.73-.31,1.09-.25.6-.38.89-.33.76-.53,1.14-.32.54-.49.81c-.26.43-.54.86-.86,1.28s-.62.81-1,1.21l-.24.28c-.47.52-1,1-1.54,1.51-.35.32-.74.62-1.13.93s-.66.54-1,.81-.87.59-1.32.88-.89.6-1.39.89a38,38,0,0,1-3.45,1.75l-1,.44q-1.4.59-2.88,1.09l-1,.36c-.62.19-1.25.37-1.89.54-.48.13-.95.27-1.43.38-.67.16-1.35.3-2,.43-.46.09-.91.2-1.37.28-1.37.24-2.75.43-4.15.58l-1.3.11c-.82.07-1.64.13-2.46.16l-1.58,0c-.67,0-1.33,0-2,0l-1.68,0-1.84-.1-1.69-.14-1.82-.2-1.63-.23q-1-.15-1.93-.34l-1.52-.31c-.76-.17-1.52-.36-2.27-.56l-1.25-.34c-1.34-.39-2.65-.83-3.92-1.32-.63-.25-1.24-.52-1.85-.79-.31-.14-.63-.26-.94-.41-.92-.44-1.82-.9-2.68-1.4-5.41-3.12-8.79-7-10.13-11a12.73,12.73,0,0,1-.67-4.07L5.79,63.73c0,5.46,3.59,10.92,10.8,15.08.86.5,1.76,1,2.68,1.4.31.15.63.27.95.41.55.24,1.08.5,1.65.72l.2.07c1.27.49,2.58.93,3.92,1.32l.32.11c.31.09.63.15.93.23.75.2,1.5.39,2.27.56l.61.15.9.16c.64.12,1.29.24,1.94.34l.78.14.85.1,1.82.2.87.1.82,0,1.84.1.93.05h.74c.67,0,1.33,0,2,0,.33,0,.66,0,1,0l.59,0c.82,0,1.64-.1,2.46-.16.33,0,.67,0,1-.07l.31,0c1.4-.15,2.78-.34,4.15-.58l.2,0c.4-.07.78-.17,1.17-.25.68-.14,1.36-.27,2-.43.48-.12,1-.26,1.43-.39.63-.17,1.27-.34,1.89-.54l.4-.11c.22-.07.42-.17.64-.24q1.48-.5,2.88-1.09l1-.44a38.1,38.1,0,0,0,3.45-1.74l.45-.26c.34-.2.62-.42.94-.63s.91-.58,1.32-.88.68-.54,1-.8.78-.61,1.13-.93l.23-.19c.47-.43.9-.88,1.31-1.32l.24-.28c.24-.28.49-.55.72-.84.1-.12.16-.25.25-.37.32-.42.6-.85.86-1.28.11-.18.26-.35.36-.54s.08-.18.13-.27c.2-.38.37-.76.53-1.14.1-.22.23-.44.31-.67s0-.15.07-.23c.13-.36.22-.73.31-1.09s.16-.49.21-.74c0-.07,0-.13,0-.2A6.43,6.43,0,0,0,78.8,65"/><path class="cls-3" d="M68.43,28.76c14.32,8.27,14.38,21.67.15,29.94S31.24,67,16.91,58.7,2.5,37,16.73,28.76,54.11,20.49,68.43,28.76Z"/></g><g class="cls-1"><path class="cls-4" d="M11.12,63.45a5.15,5.15,0,0,1,2.34,4.05c0,1.49-1.06,2.09-2.36,1.34A5.15,5.15,0,0,1,8.76,64.8C8.76,63.31,9.82,62.71,11.12,63.45Z"/></g><g class="cls-1"><path class="cls-4" d="M17,66.91A5.15,5.15,0,0,1,19.35,71c0,1.49-1.06,2.09-2.36,1.34a5.15,5.15,0,0,1-2.34-4.05C14.66,66.76,15.72,66.16,17,66.91Z"/></g><g class="cls-1"><path class="cls-5" d="M78.88,64.26c0-.11,0-.21,0-.32l.32-20.12c0,.36-.06.71-.09,1.07s-.06.77-.13,1.15-.15.63-.24.94-.18.73-.31,1.09-.25.6-.38.89-.33.76-.53,1.14-.32.54-.49.81c-.26.43-.54.86-.86,1.28s-.62.81-1,1.21l-.24.28c-.47.52-1,1-1.54,1.51-.35.32-.74.62-1.13.93s-.66.54-1,.81-.87.59-1.32.88-.89.6-1.39.89a38,38,0,0,1-3.45,1.75l-1,.44q-1.4.59-2.88,1.09l-1,.36c-.62.19-1.25.37-1.89.54-.48.13-.95.27-1.43.38-.67.16-1.35.3-2,.43-.46.09-.91.2-1.37.28-1.37.24-2.75.43-4.15.58l-1.3.11c-.82.07-1.64.13-2.46.16l-1.58,0c-.67,0-1.33,0-2,0l-1.68,0-1.84-.1-1.69-.14-1.82-.2-1.63-.23q-1-.15-1.93-.34l-1.52-.31c-.76-.17-1.52-.36-2.27-.56l-1.25-.34c-1.34-.39-2.65-.83-3.92-1.32-.63-.25-1.24-.52-1.85-.79-.31-.14-.63-.26-.94-.41-.92-.44-1.82-.9-2.68-1.4-5.41-3.12-8.79-7-10.13-11a12.73,12.73,0,0,1-.67-4.07L5.79,63.73c0,5.46,3.59,10.92,10.8,15.08.86.5,1.76,1,2.68,1.4.31.15.63.27.95.41.55.24,1.08.5,1.65.72l.2.07c1.27.49,2.58.93,3.92,1.32l.32.11c.31.09.63.15.93.23.75.2,1.5.39,2.27.56l.61.15.9.16c.64.12,1.29.24,1.94.34l.78.14.85.1,1.82.2.87.1.82,0,1.84.1.93.05h.74c.67,0,1.33,0,2,0,.33,0,.66,0,1,0l.59,0c.82,0,1.64-.1,2.46-.16.33,0,.67,0,1-.07l.31,0c1.4-.15,2.78-.34,4.15-.58l.2,0c.4-.07.78-.17,1.17-.25.68-.14,1.36-.27,2-.43.48-.12,1-.26,1.43-.39.63-.17,1.27-.34,1.89-.54l.4-.11c.22-.07.42-.17.64-.24q1.48-.5,2.88-1.09l1-.44a38.1,38.1,0,0,0,3.45-1.74l.45-.26c.34-.2.62-.42.94-.63s.91-.58,1.32-.88.68-.54,1-.8.78-.61,1.13-.93l.23-.19c.47-.43.9-.88,1.31-1.32l.24-.28c.24-.28.49-.55.72-.84.1-.12.16-.25.25-.37.32-.42.6-.85.86-1.28.11-.18.26-.35.36-.54s.08-.18.13-.27c.2-.38.37-.76.53-1.14.1-.22.23-.44.31-.67s0-.15.07-.23c.13-.36.22-.73.31-1.09s.16-.49.21-.74c0-.07,0-.13,0-.2A6.43,6.43,0,0,0,78.8,65"/><path class="cls-6" d="M42.55,22.56v.5h0c9.68,0,18.78,2.18,25.63,6.14S78.7,38.28,78.71,43.77,75,54.37,68.33,58.26,52.45,64.4,42.78,64.4,24,62.22,17.16,58.26,6.62,49.15,6.61,43.66,10.29,33.08,17,29.19s15.89-6.13,25.56-6.13v-.5m0,0c-9.36,0-18.7,2.07-25.82,6.2C2.5,37,2.59,50.43,16.91,58.7c7.16,4.13,16.52,6.2,25.87,6.2s18.68-2.07,25.8-6.2C82.81,50.43,82.75,37,68.43,28.76c-7.16-4.14-16.53-6.2-25.89-6.2Z"/></g><g class="cls-1"><path class="cls-7" d="M78.88,41.71c0-.11,0-.21,0-.32l.32-20.12c0,.36-.06.71-.09,1.07s-.06.77-.13,1.15-.15.63-.24.94-.18.73-.31,1.09-.25.6-.38.89-.33.76-.53,1.14-.32.54-.49.81c-.26.43-.54.86-.86,1.28s-.62.81-1,1.21l-.24.28c-.47.52-1,1-1.54,1.51-.35.32-.74.62-1.13.93s-.66.54-1,.81-.87.59-1.32.88-.89.6-1.39.89a38,38,0,0,1-3.45,1.75l-1,.44q-1.4.59-2.88,1.09l-1,.36c-.62.19-1.25.37-1.89.54-.48.13-.95.27-1.43.38-.67.16-1.35.3-2,.43-.46.09-.91.2-1.37.28-1.37.24-2.75.43-4.15.58L48,42.1c-.82.07-1.64.13-2.46.16l-1.58,0c-.67,0-1.33,0-2,0l-1.68,0-1.84-.1L36.74,42l-1.82-.2-1.63-.23q-1-.15-1.93-.34L29.83,41c-.76-.17-1.52-.36-2.27-.56l-1.25-.34c-1.34-.39-2.65-.83-3.92-1.32-.63-.25-1.24-.52-1.85-.79-.31-.14-.63-.26-.94-.41-.92-.44-1.82-.9-2.68-1.4-5.41-3.12-8.79-7-10.13-11a12.73,12.73,0,0,1-.67-4.07L5.79,41.18c0,5.46,3.59,10.92,10.8,15.08.86.5,1.76,1,2.68,1.4.31.15.63.27.95.41.55.24,1.08.5,1.65.72l.2.07c1.27.49,2.58.93,3.92,1.32l.32.11c.31.09.63.15.93.23.75.2,1.5.39,2.27.56l.61.15.9.16c.64.12,1.29.24,1.94.34l.78.14.85.1,1.82.2.87.1.82,0,1.84.1.93.05h.74c.67,0,1.33,0,2,0,.33,0,.66,0,1,0l.59,0c.82,0,1.64-.1,2.46-.16.33,0,.67,0,1-.07l.31,0c1.4-.15,2.78-.34,4.15-.58l.2,0c.4-.07.78-.17,1.17-.25.68-.14,1.36-.27,2-.43.48-.12,1-.26,1.43-.39.63-.17,1.27-.34,1.89-.54l.4-.11c.22-.07.42-.17.64-.24q1.48-.5,2.88-1.09l1-.44a38.1,38.1,0,0,0,3.45-1.74L68.7,56c.34-.2.62-.42.94-.63s.91-.58,1.32-.88.68-.54,1-.8.78-.61,1.13-.93l.23-.19c.47-.43.9-.88,1.31-1.32l.24-.28c.24-.28.49-.55.72-.84.1-.12.16-.25.25-.37.32-.42.6-.85.86-1.28.11-.18.26-.35.36-.54s.08-.18.13-.27c.2-.38.37-.76.53-1.14.1-.22.23-.44.31-.67s0-.15.07-.23c.13-.36.22-.73.31-1.09s.16-.49.21-.74c0-.07,0-.13,0-.2a6.43,6.43,0,0,0,.13-1.15"/><path class="cls-8" d="M68.43,6.2c14.32,8.27,14.38,21.67.15,29.94s-37.34,8.27-51.67,0S2.5,14.47,16.73,6.2,54.11-2.07,68.43,6.2Z"/></g><g class="cls-1"><path class="cls-5" d="M78.88,41.71c0-.11,0-.21,0-.32l.32-20.12c0,.36-.06.71-.09,1.07s-.06.77-.13,1.15-.15.63-.24.94-.18.73-.31,1.09-.25.6-.38.89-.33.76-.53,1.14-.32.54-.49.81c-.26.43-.54.86-.86,1.28s-.62.81-1,1.21l-.24.28c-.47.52-1,1-1.54,1.51-.35.32-.74.62-1.13.93s-.66.54-1,.81-.87.59-1.32.88-.89.6-1.39.89a38,38,0,0,1-3.45,1.75l-1,.44q-1.4.59-2.88,1.09l-1,.36c-.62.19-1.25.37-1.89.54-.48.13-.95.27-1.43.38-.67.16-1.35.3-2,.43-.46.09-.91.2-1.37.28-1.37.24-2.75.43-4.15.58L48,42.1c-.82.07-1.64.13-2.46.16l-1.58,0c-.67,0-1.33,0-2,0l-1.68,0-1.84-.1L36.74,42l-1.82-.2-1.63-.23q-1-.15-1.93-.34L29.83,41c-.76-.17-1.52-.36-2.27-.56l-1.25-.34c-1.34-.39-2.65-.83-3.92-1.32-.63-.25-1.24-.52-1.85-.79-.31-.14-.63-.26-.94-.41-.92-.44-1.82-.9-2.68-1.4-5.41-3.12-8.79-7-10.13-11a12.73,12.73,0,0,1-.67-4.07L5.79,41.18c0,5.46,3.59,10.92,10.8,15.08.86.5,1.76,1,2.68,1.4.31.15.63.27.95.41.55.24,1.08.5,1.65.72l.2.07c1.27.49,2.58.93,3.92,1.32l.32.11c.31.09.63.15.93.23.75.2,1.5.39,2.27.56l.61.15.9.16c.64.12,1.29.24,1.94.34l.78.14.85.1,1.82.2.87.1.82,0,1.84.1.93.05h.74c.67,0,1.33,0,2,0,.33,0,.66,0,1,0l.59,0c.82,0,1.64-.1,2.46-.16.33,0,.67,0,1-.07l.31,0c1.4-.15,2.78-.34,4.15-.58l.2,0c.4-.07.78-.17,1.17-.25.68-.14,1.36-.27,2-.43.48-.12,1-.26,1.43-.39.63-.17,1.27-.34,1.89-.54l.4-.11c.22-.07.42-.17.64-.24q1.48-.5,2.88-1.09l1-.44a38.1,38.1,0,0,0,3.45-1.74L68.7,56c.34-.2.62-.42.94-.63s.91-.58,1.32-.88.68-.54,1-.8.78-.61,1.13-.93l.23-.19c.47-.43.9-.88,1.31-1.32l.24-.28c.24-.28.49-.55.72-.84.1-.12.16-.25.25-.37.32-.42.6-.85.86-1.28.11-.18.26-.35.36-.54s.08-.18.13-.27c.2-.38.37-.76.53-1.14.1-.22.23-.44.31-.67s0-.15.07-.23c.13-.36.22-.73.31-1.09s.16-.49.21-.74c0-.07,0-.13,0-.2a6.43,6.43,0,0,0,.13-1.15"/><path class="cls-6" d="M42.55,0V.5h0c9.68,0,18.78,2.18,25.63,6.14S78.7,15.73,78.71,21.21,75,31.81,68.33,35.71s-15.88,6.13-25.55,6.13S24,39.66,17.16,35.71,6.62,26.6,6.61,21.11,10.29,10.52,17,6.63,32.86.5,42.54.5V0m0,0c-9.36,0-18.7,2.07-25.82,6.2C2.5,14.47,2.59,27.87,16.91,36.14c7.16,4.13,16.52,6.2,25.87,6.2s18.68-2.07,25.8-6.2c14.23-8.27,14.17-21.67-.15-29.94C61.27,2.07,51.9,0,42.54,0Z"/></g><g class="cls-1"><path class="cls-4" d="M11.12,40.77a5.15,5.15,0,0,1,2.34,4.05c0,1.49-1.06,2.09-2.36,1.34a5.15,5.15,0,0,1-2.34-4.05C8.76,40.62,9.82,40,11.12,40.77Z"/></g><g class="cls-1"><path class="cls-4" d="M17,44.22a5.15,5.15,0,0,1,2.34,4.05c0,1.49-1.06,2.09-2.36,1.34a5.15,5.15,0,0,1-2.34-4.05C14.66,44.07,15.72,43.47,17,44.22Z"/></g></svg>