<svg id="图层_1" data-name="图层 1" xmlns="http://www.w3.org/2000/svg" xmlns:xlink="http://www.w3.org/1999/xlink" viewBox="0 0 85 85"><defs><style>.cls-1{isolation:isolate;}.cls-2{fill:url(#未命名的渐变_46);}.cls-3{fill:url(#未命名的渐变_48);}.cls-4{fill:url(#未命名的渐变_55);}.cls-5{fill:#e8f2ff;}.cls-6{fill:#fff;}</style><linearGradient id="未命名的渐变_46" x1="21.73" y1="9.36" x2="42.31" y2="87.82" gradientUnits="userSpaceOnUse"><stop offset="0" stop-color="#70bdfb"/><stop offset="1" stop-color="#5768ff"/></linearGradient><linearGradient id="未命名的渐变_48" x1="63.59" y1="24.35" x2="63.59" y2="85" gradientUnits="userSpaceOnUse"><stop offset="0" stop-color="#5c8bff"/><stop offset="1" stop-color="#2b37d2"/></linearGradient><linearGradient id="未命名的渐变_55" x1="11" y1="18.27" x2="74.14" y2="18.27" gradientUnits="userSpaceOnUse"><stop offset="0" stop-color="#81c6f7"/><stop offset="1" stop-color="#6496fd"/></linearGradient></defs><title>DB2</title><g class="cls-1"><polygon class="cls-2" points="53.18 36.53 53.04 85 10.86 60.65 11 12.18 53.18 36.53"/><polygon class="cls-3" points="53.18 36.53 74.14 24.35 74 72.82 53.04 85 53.18 36.53"/><polygon class="cls-4" points="11 12.18 31.96 0 74.14 24.35 53.18 36.53 11 12.18"/></g><g class="cls-1"><path class="cls-5" d="M11.5,13,52.68,36.82l-.13,47.32L11.36,60.36,11.5,13m-.5-.86-.14,48.47L53,85l.14-48.47L11,12.18Z"/><path class="cls-5" d="M73.63,25.22,73.5,72.53l-20,11.6.13-47.31,20-11.6m.5-.87-21,12.18L53,85,74,72.82l.14-48.47Z"/><path class="cls-5" d="M32,.58,73.14,24.35,53.18,36,12,12.18,32,.58M32,0,11,12.18,53.18,36.53l21-12.18L32,0Z"/></g><g class="cls-1"><path class="cls-6" d="M33.39,51.2a2.39,2.39,0,0,1,1.3,1.92c0,.8-.48.94-1.34.44l-1.72-1V50.18Z"/><path class="cls-6" d="M43.57,46.27A5.91,5.91,0,0,1,45.12,50l0,13.59c0,1.21-.61,1.95-1.56,1.91L33.62,65a2.52,2.52,0,0,1-1.14-.37,4.73,4.73,0,0,1-1.13-.94l-9.86-11A5.93,5.93,0,0,1,19.93,49l0-13.59c0-1.21.62-1.95,1.57-1.91l9.89.44a2.52,2.52,0,0,1,1.14.37,4.73,4.73,0,0,1,1.13.94Zm-18.44,4q4,2.31,3.88-2.29a7.7,7.7,0,0,0-4.23-6.84l-2.42-1.4,0,8.91,2.52,1.46.27.16m8.53,4.92q2.88,1.66,2.89-1a4.69,4.69,0,0,0-1.82-3.11c1,.23,1.51-.18,1.51-1.23q-.17-2.16-2.73-3.71L29.9,44.05l0,8.91,3.79,2.19m9.19,3.73-3.68-2.13a6.24,6.24,0,0,1,2-.82c1.26-.11,1.84-.75,1.73-2a5,5,0,0,0-2.59-4q-2.67-1.54-3.13.9l1.58,1.27c.16-.9.58-1.16,1.25-.77l.05,0a2,2,0,0,1,1,1.77c.09.57-.47,1-1.69,1.36A4.6,4.6,0,0,0,37.14,56v1.17l5.71,3.3V58.88"/><path class="cls-6" d="M24.74,42.73a4.65,4.65,0,0,1,2.41,4.14q0,3-2.36,1.58l-.07,0-.6-.34,0-5.68Z"/><path class="cls-6" d="M34.38,49.15c0,.71-.41.87-1.16.46l-1.58-.91V46.55l1.58.91A2.07,2.07,0,0,1,34.38,49.15Z"/></g></svg>