<svg id="图层_1" data-name="图层 1" xmlns="http://www.w3.org/2000/svg" xmlns:xlink="http://www.w3.org/1999/xlink" viewBox="0 0 85 85"><defs><style>.cls-1{isolation:isolate;}.cls-2{fill:url(#未命名的渐变_46);}.cls-3{fill:url(#未命名的渐变_48);}.cls-4{fill:url(#未命名的渐变_55);}.cls-5{fill:#e8f2ff;}.cls-6{fill:#fff;}</style><linearGradient id="未命名的渐变_46" x1="21.73" y1="9.36" x2="42.31" y2="87.82" gradientUnits="userSpaceOnUse"><stop offset="0" stop-color="#70bdfb"/><stop offset="1" stop-color="#5768ff"/></linearGradient><linearGradient id="未命名的渐变_48" x1="63.59" y1="24.35" x2="63.59" y2="85" gradientUnits="userSpaceOnUse"><stop offset="0" stop-color="#5c8bff"/><stop offset="1" stop-color="#2b37d2"/></linearGradient><linearGradient id="未命名的渐变_55" x1="11" y1="18.27" x2="74.14" y2="18.27" gradientUnits="userSpaceOnUse"><stop offset="0" stop-color="#81c6f7"/><stop offset="1" stop-color="#6496fd"/></linearGradient></defs><title>Docker</title><g class="cls-1"><polygon class="cls-2" points="53.18 36.53 53.04 85 10.86 60.65 11 12.18 53.18 36.53"/><polygon class="cls-3" points="53.18 36.53 74.14 24.35 74 72.82 53.04 85 53.18 36.53"/><polygon class="cls-4" points="11 12.18 31.96 0 74.14 24.35 53.18 36.53 11 12.18"/></g><g class="cls-1"><path class="cls-5" d="M11.5,13,52.68,36.82l-.13,47.32L11.36,60.36,11.5,13m-.5-.86-.14,48.47L53,85l.14-48.47L11,12.18Z"/><path class="cls-5" d="M73.63,25.22,73.5,72.53l-20,11.6.13-47.31,20-11.6m.5-.87-21,12.18L53,85,74,72.82l.14-48.47Z"/><path class="cls-5" d="M32,.58,73.14,24.35,53.18,36,12,12.18,32,.58M32,0,11,12.18,53.18,36.53l21-12.18L32,0Z"/></g><g class="cls-1"><polygon class="cls-6" points="21.74 38.86 21.73 42.3 18.41 40.38 18.41 36.94 21.74 38.86"/><polygon class="cls-6" points="25.67 41.13 25.66 44.57 22.33 42.65 22.34 39.21 25.67 41.13"/><polygon class="cls-6" points="25.68 36.95 25.67 40.44 22.34 38.52 22.35 35.03 25.68 36.95"/><polygon class="cls-6" points="29.61 43.4 29.6 46.84 26.27 44.92 26.28 41.48 29.61 43.4"/><polygon class="cls-6" points="29.62 39.23 29.61 42.71 26.28 40.79 26.29 37.3 29.62 39.23"/><polygon class="cls-6" points="33.54 45.68 33.53 49.12 30.2 47.2 30.21 43.76 33.54 45.68"/><polygon class="cls-6" points="33.55 41.5 33.54 44.98 30.21 43.06 30.22 39.58 33.55 41.5"/><polygon class="cls-6" points="37.48 47.95 37.47 51.39 34.14 49.47 34.15 46.03 37.48 47.95"/><polygon class="cls-6" points="33.56 37.29 33.55 40.81 30.23 38.88 30.24 35.37 33.56 37.29"/><path class="cls-6" d="M47.48,55.34l.67.9c-.1.17-.36.64-.43.75-1.11,1.78-3.17.8-4.33.12l-.28-.17c-2.76,6-8.65,6.85-16.58,2.27a20.93,20.93,0,0,1-8.32-8.64c-1.92-3.73-2.64-8-2.19-10.66l21.9,12.64.1.06a4.54,4.54,0,0,0,2.34.73c-1-2.32-.73-4.82.2-5.9L41,46.9l.7.94a10.94,10.94,0,0,1,2.06,4.89,7.8,7.8,0,0,1,1.23.58A8.63,8.63,0,0,1,47.48,55.34Z"/></g></svg>