<svg id="图层_1" data-name="图层 1" xmlns="http://www.w3.org/2000/svg" xmlns:xlink="http://www.w3.org/1999/xlink" viewBox="0 0 85 85"><defs><style>.cls-1{isolation:isolate;}.cls-2{fill:url(#未命名的渐变_55);}.cls-3{fill:url(#未命名的渐变_48);}.cls-4{fill:url(#未命名的渐变_46);}.cls-5{fill:#e8f2ff;}.cls-6{fill:aqua;}.cls-7{fill:#fff;}</style><linearGradient id="未命名的渐变_55" x1="0.14" y1="30.45" x2="85" y2="30.45" gradientUnits="userSpaceOnUse"><stop offset="0" stop-color="#81c6f7"/><stop offset="1" stop-color="#6496fd"/></linearGradient><linearGradient id="未命名的渐变_48" x1="63.79" y1="30.45" x2="63.79" y2="79.13" gradientUnits="userSpaceOnUse"><stop offset="0" stop-color="#5c8bff"/><stop offset="1" stop-color="#2b37d2"/></linearGradient><linearGradient id="未命名的渐变_46" x1="14.02" y1="26.81" x2="28.7" y2="82.77" gradientUnits="userSpaceOnUse"><stop offset="0" stop-color="#70bdfb"/><stop offset="1" stop-color="#5768ff"/></linearGradient></defs><title>DPI</title><g class="cls-1"><polygon class="cls-2" points="85 30.45 42.71 55.03 0.14 30.45 42.43 5.87 85 30.45"/><polygon class="cls-3" points="85 30.45 84.86 54.55 42.57 79.13 42.71 55.03 85 30.45"/><polygon class="cls-4" points="42.71 55.03 42.57 79.13 0 54.55 0.14 30.45 42.71 55.03"/></g><g class="cls-1"><path class="cls-5" d="M42.43,6.45,84,30.45l-41.29,24-41.57-24,41.29-24m0-.58L.14,30.45,42.71,55,85,30.45,42.43,5.87Z"/><path class="cls-5" d="M84.49,31.32l-.13,22.94-41.28,24,.13-22.94,41.28-24m.51-.87L42.71,55l-.14,24.1L84.86,54.55,85,30.45Z"/><path class="cls-5" d="M.63,31.31l41.58,24-.13,23L.5,54.26l.13-23m-.5-.86L0,54.55,42.57,79.13,42.71,55,.14,30.45Z"/></g><g class="cls-1"><path class="cls-6" d="M22.83,60.69A3,3,0,0,1,24.18,63c0,.86-.61,1.21-1.36.78a3,3,0,0,1-1.35-2.34C21.47,60.6,22.08,60.25,22.83,60.69Z"/></g><g class="cls-1"><path class="cls-6" d="M26.26,62.68A3,3,0,0,1,27.62,65c0,.86-.61,1.21-1.36.78a3,3,0,0,1-1.35-2.34C24.9,62.59,25.51,62.25,26.26,62.68Z"/></g><g class="cls-1"><path class="cls-6" d="M37,68.82a3,3,0,0,1,1.35,2.34c0,.86-.61,1.21-1.36.78a3,3,0,0,1-1.35-2.34C35.64,68.74,36.25,68.39,37,68.82Z"/></g><polygon class="cls-7" points="47.47 41.55 62.84 42.15 61.87 33.24 56 36.63 36.49 25.29 36.48 25.29 32.09 22.74 37.95 19.35 22.58 18.75 23.56 27.66 29.43 24.27 34.79 27.39 34.8 27.39 53.34 38.16 47.47 41.55"/></svg>