<svg id="图层_1" data-name="图层 1" xmlns="http://www.w3.org/2000/svg" xmlns:xlink="http://www.w3.org/1999/xlink" viewBox="0 0 85 85"><defs><style>.cls-1{isolation:isolate;}.cls-2{fill:url(#未命名的渐变_55);}.cls-3{fill:url(#未命名的渐变_48);}.cls-4{fill:url(#未命名的渐变_46);}.cls-5{fill:#e8f2ff;}.cls-6{fill:aqua;}.cls-7{fill:#fff;}</style><linearGradient id="未命名的渐变_55" x1="0.14" y1="30.45" x2="85" y2="30.45" gradientUnits="userSpaceOnUse"><stop offset="0" stop-color="#81c6f7"/><stop offset="1" stop-color="#6496fd"/></linearGradient><linearGradient id="未命名的渐变_48" x1="63.79" y1="30.45" x2="63.79" y2="79.13" gradientUnits="userSpaceOnUse"><stop offset="0" stop-color="#5c8bff"/><stop offset="1" stop-color="#2b37d2"/></linearGradient><linearGradient id="未命名的渐变_46" x1="14.02" y1="26.81" x2="28.7" y2="82.77" gradientUnits="userSpaceOnUse"><stop offset="0" stop-color="#70bdfb"/><stop offset="1" stop-color="#5768ff"/></linearGradient></defs><title>DZWL</title><g class="cls-1"><polygon class="cls-2" points="85 30.45 42.71 55.03 0.14 30.45 42.43 5.87 85 30.45"/><polygon class="cls-3" points="85 30.45 84.86 54.55 42.57 79.13 42.71 55.03 85 30.45"/><polygon class="cls-4" points="42.71 55.03 42.57 79.13 0 54.55 0.14 30.45 42.71 55.03"/></g><g class="cls-1"><path class="cls-5" d="M42.43,6.45,84,30.45l-41.29,24-41.57-24,41.29-24m0-.58L.14,30.45,42.71,55,85,30.45,42.43,5.87Z"/><path class="cls-5" d="M84.49,31.32l-.13,22.94-41.28,24,.13-22.94,41.28-24m.51-.87L42.71,55l-.14,24.1L84.86,54.55,85,30.45Z"/><path class="cls-5" d="M.63,31.31l41.58,24-.13,23L.5,54.26l.13-23m-.5-.86L0,54.55,42.57,79.13,42.71,55,.14,30.45Z"/></g><g class="cls-1"><path class="cls-6" d="M22.83,60.69A3,3,0,0,1,24.18,63c0,.86-.61,1.21-1.36.78a3,3,0,0,1-1.35-2.34C21.47,60.6,22.08,60.25,22.83,60.69Z"/></g><g class="cls-1"><path class="cls-6" d="M26.26,62.68A3,3,0,0,1,27.62,65c0,.86-.61,1.21-1.36.78a3,3,0,0,1-1.35-2.34C24.9,62.59,25.51,62.25,26.26,62.68Z"/></g><g class="cls-1"><path class="cls-6" d="M37,68.82a3,3,0,0,1,1.35,2.34c0,.86-.61,1.21-1.36.78a3,3,0,0,1-1.35-2.34C35.64,68.74,36.25,68.39,37,68.82Z"/></g><g class="cls-1"><path class="cls-7" d="M59.38,36a.34.34,0,0,1,0,.65l-6,3.49a1.23,1.23,0,0,1-1.12,0L50.37,39l-5.05,2.94a2.45,2.45,0,0,1-2.22,0l-6.51-3.76-1.89,1.1a1.23,1.23,0,0,1-1.11,0l-6-3.49a.34.34,0,0,1,0-.64L29.41,34l-6.51-3.76a.68.68,0,0,1,0-1.29L27.94,26,26,24.95c-.31-.18-.31-.47,0-.65l6-3.49a1.21,1.21,0,0,1,1.11,0l1.9,1.1L40.12,19a2.45,2.45,0,0,1,2.22,0l6.51,3.76,2-1.17a1.23,1.23,0,0,1,1.12,0L58,25c.31.18.31.47,0,.65l-2,1.17,6.51,3.76a.68.68,0,0,1,0,1.29l-5.06,2.94Zm-4.13-2.38,4-2.3L53.8,28.15l-1.76,1a1.21,1.21,0,0,1-1.11,0l-6-3.49c-.31-.18-.31-.46,0-.64l1.76-1-5.4-3.12-4,2.3,1.9,1.1c.31.18.31.46,0,.64l-6,3.49a1.23,1.23,0,0,1-1.12,0l-1.9-1.1-3.95,2.29,5.4,3.12,1.89-1.1a1.21,1.21,0,0,1,1.11,0l6,3.49c.31.18.31.46,0,.64l-1.89,1.1L44.18,40l4-2.29-1.91-1.1a.34.34,0,0,1,0-.65l6-3.49a1.23,1.23,0,0,1,1.11,0l1.91,1.1"/></g></svg>