<svg id="图层_1" data-name="图层 1" xmlns="http://www.w3.org/2000/svg" xmlns:xlink="http://www.w3.org/1999/xlink" viewBox="0 0 85 85"><defs><style>.cls-1{isolation:isolate;}.cls-2{fill:url(#未命名的渐变_46);}.cls-3{fill:url(#未命名的渐变_48);}.cls-4{fill:url(#未命名的渐变_55);}.cls-5{fill:#e8f2ff;}.cls-6{fill:#fff;}</style><linearGradient id="未命名的渐变_46" x1="21.73" y1="9.36" x2="42.31" y2="87.82" gradientUnits="userSpaceOnUse"><stop offset="0" stop-color="#70bdfb"/><stop offset="1" stop-color="#5768ff"/></linearGradient><linearGradient id="未命名的渐变_48" x1="63.59" y1="24.35" x2="63.59" y2="85" gradientUnits="userSpaceOnUse"><stop offset="0" stop-color="#5c8bff"/><stop offset="1" stop-color="#2b37d2"/></linearGradient><linearGradient id="未命名的渐变_55" x1="11" y1="18.27" x2="74.14" y2="18.27" gradientUnits="userSpaceOnUse"><stop offset="0" stop-color="#81c6f7"/><stop offset="1" stop-color="#6496fd"/></linearGradient></defs><title>Exchange</title><g class="cls-1"><polygon class="cls-2" points="53.18 36.53 53.04 85 10.86 60.65 11 12.18 53.18 36.53"/><polygon class="cls-3" points="53.18 36.53 74.14 24.35 74 72.82 53.04 85 53.18 36.53"/><polygon class="cls-4" points="11 12.18 31.96 0 74.14 24.35 53.18 36.53 11 12.18"/></g><g class="cls-1"><path class="cls-5" d="M11.5,13,52.68,36.82l-.13,47.32L11.36,60.36,11.5,13m-.5-.86-.14,48.47L53,85l.14-48.47L11,12.18Z"/><path class="cls-5" d="M73.63,25.22,73.5,72.53l-20,11.6.13-47.31,20-11.6m.5-.87-21,12.18L53,85,74,72.82l.14-48.47Z"/><path class="cls-5" d="M32,.58,73.14,24.35,53.18,36,12,12.18,32,.58M32,0,11,12.18,53.18,36.53l21-12.18L32,0Z"/></g><g class="cls-1"><polygon class="cls-6" points="31.34 48.12 31.18 47.18 31.65 46.77 32.41 47.21 32.88 48.16 32.71 48.91 32.02 48.89 31.34 48.12"/><path class="cls-6" d="M26,45.38v0Z"/><path class="cls-6" d="M27.16,45.66h0v0Z"/><path class="cls-6" d="M34.2,55.75h0Z"/></g><g class="cls-1"><polygon class="cls-6" points="22.53 39.91 25.29 44.7 22.51 46.29 19.74 41.49 22.53 39.91"/><polygon class="cls-6" points="29.25 46.98 32.03 45.4 34.79 50.18 32.01 51.78 29.25 46.98"/><polygon class="cls-6" points="32 56.11 36.67 53.16 39.38 58.02 34.71 60.97 31.98 62.7 29.28 57.84 24.64 49.51 27.37 47.79 32 56.11"/><polygon class="cls-6" points="41.53 50.89 44.3 55.68 41.52 57.26 38.76 52.47 41.53 50.89"/><polygon class="cls-6" points="32.04 41.06 27.38 44.02 24.67 39.16 29.34 36.21 32.06 34.48 34.77 39.34 39.4 47.67 36.68 49.39 32.04 41.06"/></g></svg>