<svg id="图层_1" data-name="图层 1" xmlns="http://www.w3.org/2000/svg" xmlns:xlink="http://www.w3.org/1999/xlink" viewBox="0 0 85 85"><defs><style>.cls-1{isolation:isolate;}.cls-2{fill:#3fd6ff;}.cls-3{fill:url(#未命名的渐变_48);}.cls-4{fill:url(#未命名的渐变_46);}.cls-5{fill:#e8f2ff;}.cls-6{fill:none;stroke:#e8f2ff;stroke-linecap:round;stroke-linejoin:round;stroke-width:0.48px;}.cls-7{fill:url(#未命名的渐变_55);}.cls-8{fill:url(#未命名的渐变_48-2);}.cls-9{fill:url(#未命名的渐变_46-2);}.cls-10{fill:#f3f8ff;}</style><linearGradient id="未命名的渐变_48" x1="63.95" y1="30.36" x2="63.95" y2="85" gradientUnits="userSpaceOnUse"><stop offset="0" stop-color="#5c8bff"/><stop offset="1" stop-color="#2b37d2"/></linearGradient><linearGradient id="未命名的渐变_46" x1="26.27" y1="9.59" x2="46.82" y2="87.92" gradientUnits="userSpaceOnUse"><stop offset="0" stop-color="#70bdfb"/><stop offset="1" stop-color="#5768ff"/></linearGradient><linearGradient id="未命名的渐变_55" x1="12.96" y1="17.11" x2="72.13" y2="17.11" gradientUnits="userSpaceOnUse"><stop offset="0" stop-color="#81c6f7"/><stop offset="1" stop-color="#6496fd"/></linearGradient><linearGradient id="未命名的渐变_48-2" x1="65.73" y1="26.82" x2="65.73" y2="38.11" xlink:href="#未命名的渐变_48"/><linearGradient id="未命名的渐变_46-2" x1="30.88" y1="2.68" x2="41.4" y2="42.81" xlink:href="#未命名的渐变_46"/></defs><title>FHQ</title><g class="cls-1"><polygon class="cls-2" points="69.94 30.36 58.03 37.28 15.14 12.51 27.05 5.59 69.94 30.36"/><polygon class="cls-3" points="69.94 30.36 69.86 78.08 57.95 85 58.03 37.28 69.94 30.36"/><polygon class="cls-4" points="58.03 37.28 57.95 85 15.06 60.23 15.14 12.51 58.03 37.28"/></g><g class="cls-1"><path class="cls-5" d="M27,6.15,69,30.36,58,36.72,16.1,12.51,27,6.15m0-.56L15.14,12.51,58,37.28l11.91-6.91L27,5.6Z"/><path class="cls-5" d="M69.46,31.2l-.08,46.61L58.43,84.16l.08-46.61L69.46,31.2m.48-.84L58,37.28,58,85l11.91-6.91.08-47.72Z"/><polyline class="cls-6" points="58.03 37.28 57.95 85 15.06 60.23 15.14 12.51"/></g><g class="cls-1"><polygon class="cls-7" points="72.13 26.82 59.41 34.21 12.96 7.38 25.68 0 72.13 26.82"/><polygon class="cls-8" points="72.13 26.82 72.04 30.73 59.32 38.11 59.41 34.21 72.13 26.82"/><polygon class="cls-9" points="59.41 34.21 59.32 38.11 12.87 11.29 12.96 7.38 59.41 34.21"/></g><g class="cls-1"><path class="cls-5" d="M25.68.56l45.5,26.27L59.41,33.65,13.92,7.38,25.68.56m0-.56L13,7.39,59.41,34.21l12.72-7.39L25.68,0Z"/><path class="cls-5" d="M71.63,27.67l-.06,2.77L59.82,37.26l.06-2.77,11.74-6.82m.5-.85L59.41,34.21l-.09,3.9L72,30.73l.09-3.9Z"/><path class="cls-5" d="M13.42,8.21,58.93,34.48l-.07,2.81L13.35,11l.07-2.81M13,7.39l-.09,3.9L59.32,38.11l.09-3.9L13,7.39Z"/></g><polygon class="cls-10" points="30.86 58.14 30.85 64.25 18.18 56.94 18.2 50.83 30.86 58.14"/><polygon class="cls-10" points="24.33 46.61 24.31 52.72 18.21 49.2 18.22 43.08 24.33 46.61"/><polygon class="cls-10" points="30.91 42.65 30.89 48.77 18.23 41.45 18.25 35.34 30.91 42.65"/><polygon class="cls-10" points="24.37 31.12 24.35 37.23 18.25 33.71 18.27 27.6 24.37 31.12"/><polygon class="cls-10" points="45.95 66.85 45.93 72.96 33.27 65.65 33.29 59.54 45.95 66.85"/><polygon class="cls-10" points="39.43 55.33 39.41 61.44 26.75 54.13 26.77 48.02 39.43 55.33"/><g class="cls-1"><polygon class="cls-10" points="54.49 71.78 54.48 77.9 48.37 74.37 48.39 68.26 54.49 71.78"/><polygon class="cls-10" points="30.95 27.16 30.93 33.28 18.27 25.97 18.29 19.85 30.95 27.16"/><polygon class="cls-10" points="45.99 51.36 45.98 57.48 33.32 50.17 33.33 44.05 45.99 51.36"/><polygon class="cls-10" points="39.47 39.84 39.45 45.95 26.79 38.64 26.81 32.53 39.47 39.84"/><polygon class="cls-10" points="54.52 64.04 54.5 70.15 41.84 62.84 41.85 56.73 54.52 64.04"/></g><polygon class="cls-10" points="54.54 56.29 54.52 62.41 48.42 58.88 48.43 52.77 54.54 56.29"/><polygon class="cls-10" points="46.04 35.87 46.02 41.99 33.36 34.68 33.38 28.56 46.04 35.87"/><polygon class="cls-10" points="54.56 48.55 54.54 54.66 41.88 47.35 41.9 41.24 54.56 48.55"/><g class="cls-1"><polygon class="cls-10" points="54.58 40.8 54.56 46.92 48.46 43.4 48.48 37.28 54.58 40.8"/></g></svg>