<svg id="图层_1" data-name="图层 1" xmlns="http://www.w3.org/2000/svg" xmlns:xlink="http://www.w3.org/1999/xlink" viewBox="0 0 85 85"><defs><style>.cls-1{isolation:isolate;}.cls-2{fill:url(#未命名的渐变_46);}.cls-3{fill:url(#未命名的渐变_48);}.cls-4{fill:url(#未命名的渐变_55);}.cls-5{fill:#e8f2ff;}.cls-6{fill:#fff;}</style><linearGradient id="未命名的渐变_46" x1="21.73" y1="9.36" x2="42.31" y2="87.82" gradientUnits="userSpaceOnUse"><stop offset="0" stop-color="#70bdfb"/><stop offset="1" stop-color="#5768ff"/></linearGradient><linearGradient id="未命名的渐变_48" x1="63.59" y1="24.35" x2="63.59" y2="85" gradientUnits="userSpaceOnUse"><stop offset="0" stop-color="#5c8bff"/><stop offset="1" stop-color="#2b37d2"/></linearGradient><linearGradient id="未命名的渐变_55" x1="11" y1="18.27" x2="74.14" y2="18.27" gradientUnits="userSpaceOnUse"><stop offset="0" stop-color="#81c6f7"/><stop offset="1" stop-color="#6496fd"/></linearGradient></defs><title>FLUME</title><g class="cls-1"><polygon class="cls-2" points="53.18 36.53 53.04 85 10.86 60.65 11 12.18 53.18 36.53"/><polygon class="cls-3" points="53.18 36.53 74.14 24.35 74 72.82 53.04 85 53.18 36.53"/><polygon class="cls-4" points="11 12.18 31.96 0 74.14 24.35 53.18 36.53 11 12.18"/></g><g class="cls-1"><path class="cls-5" d="M11.5,13,52.68,36.82l-.13,47.32L11.36,60.36,11.5,13m-.5-.86-.14,48.47L53,85l.14-48.47L11,12.18Z"/><path class="cls-5" d="M73.63,25.22,73.5,72.53l-20,11.6.13-47.31,20-11.6m.5-.87-21,12.18L53,85,74,72.82l.14-48.47Z"/><path class="cls-5" d="M32,.58,73.14,24.35,53.18,36,12,12.18,32,.58M32,0,11,12.18,53.18,36.53l21-12.18L32,0Z"/></g><g class="cls-1"><path class="cls-6" d="M32.06,34.44c6.8,3.92,12.3,13.45,12.27,21.26s-5.56,11-12.35,7S19.69,49.29,19.71,41.48,25.27,30.51,32.06,34.44Zm.42,8.37,0,4.08a2.53,2.53,0,0,1,.33.32l1.39-.8a8.29,8.29,0,0,0,.59,1.1l-1.3.74a3.72,3.72,0,0,1,.29.82l3.56,2.06a9.78,9.78,0,0,0-.3-1.75,1.49,1.49,0,0,0,1.52-.23,12.31,12.31,0,0,1,.54,3l3.52,2a21.56,21.56,0,0,0-2.86-9.47l-1.23.7a5.85,5.85,0,0,0-.66-1.06l1.26-.74a21.56,21.56,0,0,0-6.59-6.89v4a13.7,13.7,0,0,1,2.33,2,1.47,1.47,0,0,0-1,1.19,9.55,9.55,0,0,0-1.36-1.14m-.05,18.14c5.48,2.91,9.89.39,10.13-5.77l-3.52-2c-.23,3.92-3.05,5.55-6.59,3.76v4m-.88-.51v-4A15.7,15.7,0,0,1,25,45l-3.52-2c.2,6.39,4.58,14,10.06,17.43m.06-20.16v-4c-5.46-2.9-9.89-.4-10.13,5.77L25,44c.23-3.92,3.05-5.55,6.6-3.76m0,14.1v-4.1a4,4,0,0,1-1.25-2.16l-3.56-2.06a11.92,11.92,0,0,0,4.8,8.31m5.71-2.25-3.54-2a.94.94,0,0,1-1.28.73v4.07c2.55,1.22,4.6,0,4.83-2.75m-5.69-5.74V42.3C29,41.07,27,42.25,26.77,45.05l3.56,2.06a.94.94,0,0,1,1.26-.72"/><path class="cls-6" d="M36.41,48.11a3.88,3.88,0,0,1-1.76-3c0-1.11.8-1.56,1.77-1a3.88,3.88,0,0,1,1.75,3C38.17,48.22,37.38,48.67,36.41,48.11Z"/></g></svg>