<svg id="图层_1" data-name="图层 1" xmlns="http://www.w3.org/2000/svg" xmlns:xlink="http://www.w3.org/1999/xlink" viewBox="0 0 85 85"><defs><style>.cls-1{isolation:isolate;}.cls-2{fill:url(#未命名的渐变_46);}.cls-3{fill:url(#未命名的渐变_48);}.cls-4{fill:url(#未命名的渐变_55);}.cls-5{fill:#e8f2ff;}.cls-6{fill:#fff;}</style><linearGradient id="未命名的渐变_46" x1="21.73" y1="9.36" x2="42.31" y2="87.82" gradientUnits="userSpaceOnUse"><stop offset="0" stop-color="#70bdfb"/><stop offset="1" stop-color="#5768ff"/></linearGradient><linearGradient id="未命名的渐变_48" x1="63.59" y1="24.35" x2="63.59" y2="85" gradientUnits="userSpaceOnUse"><stop offset="0" stop-color="#5c8bff"/><stop offset="1" stop-color="#2b37d2"/></linearGradient><linearGradient id="未命名的渐变_55" x1="11" y1="18.27" x2="74.14" y2="18.27" gradientUnits="userSpaceOnUse"><stop offset="0" stop-color="#81c6f7"/><stop offset="1" stop-color="#6496fd"/></linearGradient></defs><title>FTP</title><g class="cls-1"><polygon class="cls-2" points="53.18 36.53 53.04 85 10.86 60.65 11 12.18 53.18 36.53"/><polygon class="cls-3" points="53.18 36.53 74.14 24.35 74 72.82 53.04 85 53.18 36.53"/><polygon class="cls-4" points="11 12.18 31.96 0 74.14 24.35 53.18 36.53 11 12.18"/></g><g class="cls-1"><path class="cls-5" d="M11.5,13,52.68,36.82l-.13,47.32L11.36,60.36,11.5,13m-.5-.86-.14,48.47L53,85l.14-48.47L11,12.18Z"/><path class="cls-5" d="M73.63,25.22,73.5,72.53l-20,11.6.13-47.31,20-11.6m.5-.87-21,12.18L53,85,74,72.82l.14-48.47Z"/><path class="cls-5" d="M32,.58,73.14,24.35,53.18,36,12,12.18,32,.58M32,0,11,12.18,53.18,36.53l21-12.18L32,0Z"/></g><g class="cls-1"><path class="cls-6" d="M24.73,39.12a2.1,2.1,0,0,1,.34,1.14.73.73,0,0,1-.35.74c-.23.11-.57,0-1-.24l-5.1-2.94v3.53l4.25,2.45a2.78,2.78,0,0,1,1,.9,2.06,2.06,0,0,1,.34,1.12c0,.38-.12.63-.35.72a1.19,1.19,0,0,1-1-.23L18.6,43.88v4.75c0,.66-.15,1.08-.41,1.25a1,1,0,0,1-1-.12,2.76,2.76,0,0,1-1-1.11,3.33,3.33,0,0,1-.4-1.7l0-11.42a1.93,1.93,0,0,1,.2-1,.59.59,0,0,1,.59-.32,2.24,2.24,0,0,1,1,.35l6.23,3.6A2.9,2.9,0,0,1,24.73,39.12Z"/></g><g class="cls-1"><path class="cls-6" d="M36.87,46.17a2.26,2.26,0,0,1,.37,1.21c0,.41-.13.68-.38.78a1.34,1.34,0,0,1-1.1-.26L33,46.31l0,10.63c0,.66-.13,1.09-.4,1.26a1,1,0,0,1-1-.11,2.76,2.76,0,0,1-1-1.11,3.31,3.31,0,0,1-.4-1.7l0-10.65L27.37,43a3.1,3.1,0,0,1-1.09-1,2.25,2.25,0,0,1-.37-1.21c0-.43.13-.7.39-.79a1.37,1.37,0,0,1,1.08.26l8.4,4.85A2.91,2.91,0,0,1,36.87,46.17Z"/></g><g class="cls-1"><path class="cls-6" d="M48.08,54.88A6.79,6.79,0,0,1,48.37,57q0,2.34-1.29,2.81c-.83.31-2.09,0-3.75-1L41,57.56v4.06c0,.64-.13,1-.41,1.23a.94.94,0,0,1-1-.09,2.76,2.76,0,0,1-1-1.11A3.51,3.51,0,0,1,38.14,60l0-11.44c0-.69.15-1.14.45-1.26s.75,0,1.36.31l3.4,2a14.85,14.85,0,0,1,2.35,1.62,7.51,7.51,0,0,1,1.44,1.7A7.65,7.65,0,0,1,48.08,54.88Zm-2.93,1.58a1.39,1.39,0,0,0,.31-1.06A3.6,3.6,0,0,0,45,53.62a6,6,0,0,0-2.25-1.92l-1.67-1V55l1.67,1a5.44,5.44,0,0,0,1.52.65.89.89,0,0,0,.9-.16"/></g></svg>