<svg id="图层_1" data-name="图层 1" xmlns="http://www.w3.org/2000/svg" xmlns:xlink="http://www.w3.org/1999/xlink" viewBox="0 0 85 85"><defs><style>.cls-1{isolation:isolate;}.cls-2{fill:url(#未命名的渐变_46);}.cls-3{fill:url(#未命名的渐变_48);}.cls-4{fill:url(#未命名的渐变_55);}.cls-5{fill:#e8f2ff;}.cls-6{fill:#f3f8ff;}.cls-7{fill:aqua;}.cls-8{fill:url(#未命名的渐变_52);}</style><linearGradient id="未命名的渐变_46" x1="28.42" y1="34.52" x2="38.16" y2="71.73" gradientUnits="userSpaceOnUse"><stop offset="0" stop-color="#70bdfb"/><stop offset="1" stop-color="#5768ff"/></linearGradient><linearGradient id="未命名的渐变_48" x1="56.64" y1="16.33" x2="56.64" y2="85" gradientUnits="userSpaceOnUse"><stop offset="0" stop-color="#5c8bff"/><stop offset="1" stop-color="#2b37d2"/></linearGradient><linearGradient id="未命名的渐变_55" x1="18.03" y1="14.21" x2="67.13" y2="14.21" gradientUnits="userSpaceOnUse"><stop offset="0" stop-color="#81c6f7"/><stop offset="1" stop-color="#6496fd"/></linearGradient><linearGradient id="未命名的渐变_52" x1="49.64" y1="39.33" x2="65.13" y2="39.33" gradientUnits="userSpaceOnUse"><stop offset="0" stop-color="#fafafe"/><stop offset="1" stop-color="#e1dbfa"/></linearGradient></defs><title>FWQ</title><g class="cls-1"><polygon class="cls-2" points="46.31 28.43 46.15 85 17.87 68.67 18.03 12.1 46.31 28.43"/><polygon class="cls-3" points="46.31 28.43 67.13 16.33 66.97 72.9 46.15 85 46.31 28.43"/><polygon class="cls-4" points="18.03 12.1 38.85 0 67.13 16.33 46.31 28.43 18.03 12.1"/></g><g class="cls-1"><path class="cls-5" d="M18.53,13,45.81,28.71l-.16,55.42L18.37,68.38,18.53,13M18,12.1l-.16,56.57L46.15,85l.16-56.57L18,12.1Z"/><path class="cls-5" d="M66.63,17.2l-.16,55.42L46.66,84.13l.16-55.42L66.63,17.2m.5-.87L46.31,28.43,46.15,85,67,72.9l.16-56.57Z"/><path class="cls-5" d="M38.85.58,66.13,16.33,46.31,27.85,19,12.09,38.85.58m0-.58L18,12.1,46.31,28.43l20.81-12.1L38.85,0Z"/></g><polygon class="cls-6" points="42.06 30.88 42.02 35.46 21.65 23.68 21.71 19.1 42.06 30.88"/><polygon class="cls-6" points="42.06 37.33 42.02 41.92 21.65 30.13 21.71 25.56 42.06 37.33"/><polygon class="cls-6" points="42.06 43.79 42.02 48.37 21.65 36.59 21.71 32.02 42.06 43.79"/><polygon class="cls-6" points="42.06 50.25 42.02 54.83 21.65 43.05 21.71 38.47 42.06 50.25"/><polygon class="cls-6" points="42.06 56.7 42.02 61.28 21.65 49.5 21.71 44.93 42.06 56.7"/><polygon class="cls-6" points="42.06 63.16 42.02 67.74 21.65 55.96 21.71 51.38 42.06 63.16"/><g class="cls-1"><path class="cls-7" d="M22.39,65.12a1.61,1.61,0,0,1,.73,1.27c0,.47-.33.65-.74.42a1.61,1.61,0,0,1-.73-1.27C21.66,65.07,22,64.88,22.39,65.12Z"/></g><g class="cls-1"><path class="cls-7" d="M24.25,66.2A1.61,1.61,0,0,1,25,67.47c0,.47-.33.65-.74.42a1.61,1.61,0,0,1-.73-1.27C23.52,66.15,23.85,66,24.25,66.2Z"/></g><g class="cls-1"><path class="cls-7" d="M30.06,69.52a1.61,1.61,0,0,1,.73,1.27c0,.47-.33.65-.74.42a1.61,1.61,0,0,1-.73-1.27C29.33,69.48,29.66,69.29,30.06,69.52Z"/></g><polygon class="cls-8" points="65.13 32.02 65.07 37.79 49.64 46.64 49.69 40.87 65.13 32.02"/></svg>