<svg id="图层_1" data-name="图层 1" xmlns="http://www.w3.org/2000/svg" xmlns:xlink="http://www.w3.org/1999/xlink" viewBox="0 0 85 85"><defs><style>.cls-1{isolation:isolate;}.cls-2{fill:url(#未命名的渐变_55);}.cls-3{fill:url(#未命名的渐变_48);}.cls-4{fill:url(#未命名的渐变_46);}.cls-5{fill:#e8f2ff;}.cls-6{fill:#f3f8ff;}</style><linearGradient id="未命名的渐变_55" x1="19.32" y1="13.41" x2="65.75" y2="13.41" gradientUnits="userSpaceOnUse"><stop offset="0" stop-color="#81c6f7"/><stop offset="1" stop-color="#6496fd"/></linearGradient><linearGradient id="未命名的渐变_48" x1="59.5" y1="19.63" x2="59.5" y2="85" gradientUnits="userSpaceOnUse"><stop offset="0" stop-color="#5c8bff"/><stop offset="1" stop-color="#2b37d2"/></linearGradient><linearGradient id="未命名的渐变_46" x1="25.64" y1="5.53" x2="46.93" y2="86.66" gradientUnits="userSpaceOnUse"><stop offset="0" stop-color="#70bdfb"/><stop offset="1" stop-color="#5768ff"/></linearGradient></defs><title>GLSB</title><g class="cls-1"><polygon class="cls-2" points="65.75 19.63 53.32 26.82 19.32 7.19 31.75 0 65.75 19.63"/><polygon class="cls-3" points="65.75 19.63 65.69 77.81 53.25 85 53.32 26.82 65.75 19.63"/><polygon class="cls-4" points="53.32 26.82 53.25 85 19.25 65.37 19.32 7.19 53.32 26.82"/></g><g class="cls-1"><path class="cls-5" d="M31.75.56l33,19.08L53.32,26.26l-33-19.08L31.75.56m0-.56L19.32,7.19l34,19.63,12.43-7.19L31.75,0Z"/><path class="cls-5" d="M65.27,20.47,65.2,77.54,53.73,84.17,53.8,27.1l11.47-6.63m.48-.83L53.32,26.82,53.25,85l12.43-7.19.07-58.18Z"/><path class="cls-5" d="M19.8,8l33,19.08-.07,57.07-33-19.08L19.8,8m-.48-.83-.07,58.18L53.25,85l.07-58.18-34-19.63Z"/></g><g class="cls-1"><polygon class="cls-6" points="31.78 63.71 31.77 68.55 21.73 62.76 21.74 57.91 31.78 63.71"/></g><g class="cls-1"><polygon class="cls-6" points="26.6 54.57 26.59 59.41 21.75 56.62 21.76 51.77 26.6 54.57"/></g><g class="cls-1"><polygon class="cls-6" points="31.81 51.43 31.8 56.28 21.76 50.48 21.78 45.63 31.81 51.43"/><polygon class="cls-6" points="26.63 42.29 26.62 47.13 21.78 44.34 21.8 39.5 26.63 42.29"/><polygon class="cls-6" points="43.74 70.61 43.73 75.46 33.69 69.66 33.7 64.82 43.74 70.61"/><polygon class="cls-6" points="38.57 61.48 38.55 66.32 28.52 60.53 28.53 55.68 38.57 61.48"/></g><g class="cls-1"><polygon class="cls-6" points="50.51 74.52 50.5 79.37 45.66 76.58 45.67 71.73 50.51 74.52"/><polygon class="cls-6" points="31.85 39.15 31.84 44 21.8 38.2 21.81 33.35 31.85 39.15"/><polygon class="cls-6" points="26.67 30.01 26.66 34.86 21.82 32.06 21.83 27.22 26.67 30.01"/><polygon class="cls-6" points="43.77 58.33 43.76 63.18 33.72 57.39 33.74 52.54 43.77 58.33"/><polygon class="cls-6" points="38.6 49.2 38.59 54.05 28.55 48.25 28.57 43.41 38.6 49.2"/><polygon class="cls-6" points="50.53 68.38 50.52 73.23 40.48 67.43 40.49 62.59 50.53 68.38"/></g><g class="cls-1"><polygon class="cls-6" points="50.55 62.24 50.53 67.09 45.69 64.3 45.71 59.45 50.55 62.24"/><polygon class="cls-6" points="31.88 26.87 31.87 31.72 21.83 25.92 21.85 21.08 31.88 26.87"/><polygon class="cls-6" points="26.7 17.73 26.69 22.58 21.85 19.79 21.86 14.94 26.7 17.73"/><polygon class="cls-6" points="43.81 46.05 43.8 50.9 33.76 45.11 33.77 40.26 43.81 46.05"/><polygon class="cls-6" points="38.64 36.92 38.63 41.77 28.59 35.97 28.6 31.13 38.64 36.92"/><polygon class="cls-6" points="50.56 56.1 50.55 60.95 40.51 55.16 40.53 50.31 50.56 56.1"/></g><g class="cls-1"><polygon class="cls-6" points="50.58 49.96 50.57 54.81 45.73 52.02 45.74 47.17 50.58 49.96"/><polygon class="cls-6" points="43.84 33.78 43.83 38.62 33.79 32.83 33.81 27.98 43.84 33.78"/><polygon class="cls-6" points="38.67 24.65 38.66 29.49 28.62 23.7 28.64 18.85 38.67 24.65"/><polygon class="cls-6" points="50.6 43.83 50.59 48.67 40.55 42.88 40.56 38.03 50.6 43.83"/></g><g class="cls-1"><polygon class="cls-6" points="50.62 37.69 50.6 42.53 45.76 39.74 45.78 34.89 50.62 37.69"/></g><g class="cls-1"><polygon class="cls-6" points="50.63 31.55 50.62 36.4 40.58 30.6 40.6 25.76 50.63 31.55"/></g></svg>