<svg id="图层_1" data-name="图层 1" xmlns="http://www.w3.org/2000/svg" xmlns:xlink="http://www.w3.org/1999/xlink" viewBox="0 0 85 85"><defs><style>.cls-1{isolation:isolate;}.cls-2{fill:url(#未命名的渐变_46);}.cls-3{fill:url(#未命名的渐变_48);}.cls-4{fill:url(#未命名的渐变_55);}.cls-5{fill:#e8f2ff;}.cls-6{fill:#fff;}</style><linearGradient id="未命名的渐变_46" x1="21.73" y1="9.36" x2="42.31" y2="87.82" gradientUnits="userSpaceOnUse"><stop offset="0" stop-color="#70bdfb"/><stop offset="1" stop-color="#5768ff"/></linearGradient><linearGradient id="未命名的渐变_48" x1="63.59" y1="24.35" x2="63.59" y2="85" gradientUnits="userSpaceOnUse"><stop offset="0" stop-color="#5c8bff"/><stop offset="1" stop-color="#2b37d2"/></linearGradient><linearGradient id="未命名的渐变_55" x1="11" y1="18.27" x2="74.14" y2="18.27" gradientUnits="userSpaceOnUse"><stop offset="0" stop-color="#81c6f7"/><stop offset="1" stop-color="#6496fd"/></linearGradient></defs><title>Hbase</title><g class="cls-1"><polygon class="cls-2" points="53.18 36.53 53.04 85 10.86 60.65 11 12.18 53.18 36.53"/><polygon class="cls-3" points="53.18 36.53 74.14 24.35 74 72.82 53.04 85 53.18 36.53"/><polygon class="cls-4" points="11 12.18 31.96 0 74.14 24.35 53.18 36.53 11 12.18"/></g><g class="cls-1"><path class="cls-5" d="M11.5,13,52.68,36.82l-.13,47.32L11.36,60.36,11.5,13m-.5-.86-.14,48.47L53,85l.14-48.47L11,12.18Z"/><path class="cls-5" d="M73.63,25.22,73.5,72.53l-20,11.6.13-47.31,20-11.6m.5-.87-21,12.18L53,85,74,72.82l.14-48.47Z"/><path class="cls-5" d="M32,.58,73.14,24.35,53.18,36,12,12.18,32,.58M32,0,11,12.18,53.18,36.53l21-12.18L32,0Z"/></g><g class="cls-1"><path class="cls-6" d="M19.4,42.93l-1.77,2.51c-.63-1.54-.29-3.7.66-4.09a.29.29,0,0,1,.26,0,.8.8,0,0,1,.26.36Z"/><path class="cls-6" d="M34.34,54c.35.2.46.48.36.73a2.33,2.33,0,0,1-.62.9c-1.18.92-2.82.74-4.64.08A9.9,9.9,0,0,1,27.86,55a13.53,13.53,0,0,1-2.23-1.63c-.14-.12-.37-.36-.37-.45s.07-.31.2-.34c1.06,0,1.61-.73,2.31-1.26a1.6,1.6,0,0,1,1.87.05l0,0,2.26,1.3v0l1.59.93.8.45Z"/><path class="cls-6" d="M47.49,63.9a.85.85,0,0,1-.06.41.17.17,0,0,1-.2,0,3.6,3.6,0,0,0-1.13-1.74,4.57,4.57,0,0,0-1-.89l-.37-.23-.37-.19a2.14,2.14,0,0,1-1.1-1.53,3,3,0,0,0-.11.47c-.05.22-.24.28-.46.15l-.09-.06-.16-.1A1.71,1.71,0,0,0,42,60c-.09,0-.11.14-.22.09s-.1-.16-.21-.22c-.34-.18-.21.13-.39,0-.4-.19-.43.06-.47.39,0,.09-.1.12-.15.18-.63-.89-.79-2-.35-2.47a6.55,6.55,0,0,1,1-.67,9.43,9.43,0,0,0,.69-.65l1.66,2.81c.11.07.14.08.14,0a.6.6,0,0,0-.09-.32,17.37,17.37,0,0,0-5.45-6.62c-.2-.14-.4-.27-.59-.38a5.43,5.43,0,0,0-3.07-.74,13.67,13.67,0,0,0-2.33.64,1.24,1.24,0,0,1-1-.17l-.54-.32-1-.59a1.81,1.81,0,0,0-2.1-.07,7.94,7.94,0,0,1-.87.73,7.8,7.8,0,0,1-1.11.46,1.63,1.63,0,0,0-.39.14c-.32.23-.2.7.25,1.1s.9.76,1.39,1.17a1.28,1.28,0,0,1-.2.16,6.43,6.43,0,0,1-3.38.62,10.26,10.26,0,0,0-3,.17,2.41,2.41,0,0,1-1.83-.29,4,4,0,0,1-1.51-2.28c-.06-.57-.1-1.13-.18-1.71a7.68,7.68,0,0,1,.61-4.15,13.41,13.41,0,0,1,4.07-5.48c.49-.38.93-.82,1.44-1.15a1.57,1.57,0,0,0,.49-1.57c-.09-1.3-.18-2.6-.19-3.86a4.45,4.45,0,0,1,.29-1.47,1,1,0,0,1,1.11-.72.66.66,0,0,1,.25.07c.15.09.22.25.26.55.19,1.2.38,2.4.6,3.61a6,6,0,0,0,.37,1,3.53,3.53,0,0,0,1.41,1.75,1.87,1.87,0,0,0,.32.15,31.33,31.33,0,0,1,4,2l1.08.65a24.79,24.79,0,0,1,8.06,8.54c1.35,2.19,2.12,3.91,3.15,5.88a2.14,2.14,0,0,0,.69,1A7.83,7.83,0,0,1,47.49,63.9ZM40.87,53.48a2.6,2.6,0,0,0-.16-.39,10.72,10.72,0,0,0-3.79-3.78c-1.61-.93-3.28-1.2-4.22,0-.57.72-1.15,1.45-1.79,2.13l.3.19c.42.24.48.17.72,0a9.54,9.54,0,0,1,1.64-.58,4.8,4.8,0,0,1,3.86.68q.35.2.69.45a15.46,15.46,0,0,1,2,1.64,4.48,4.48,0,0,0-1.07-1.4,11.1,11.1,0,0,0-1.76-1.27l-.2-.11c-.13-.1-.35-.22-.35-.39s.18-.17.29-.12a6.93,6.93,0,0,1,1.17.55l.07,0a16.79,16.79,0,0,1,2.58,2.36M26,54.51c-.51-.49-.81-.73-1.16-1.07a3.73,3.73,0,0,0-.59-.57c-.18-.1-.28,0-.53.26a3,3,0,0,1-2.31.95,2.37,2.37,0,0,0-1.27.23,2.36,2.36,0,0,1-1.91.43s0,0,0,.11l.05,0a2.65,2.65,0,0,0,1.85.26c.78-.08,1.56-.15,2.35-.2.52,0,1.08,0,1.59,0a7.2,7.2,0,0,0,1.94-.4M46.75,62.8c.3-1.19-1.77-4.3-3.37-5.22a2.43,2.43,0,0,0-.34-.16c.16.35.28.63.42.9s.38.72.54,1.09a.52.52,0,0,1,0,.5.53.53,0,0,1-.25-.08,1,1,0,0,1-.25-.21,9.18,9.18,0,0,1-.62-1l-.73-1.24c-.5.35-.94.68-1.36,1a1.61,1.61,0,0,0-.36.62.72.72,0,0,0,.15.37h0c.05,0,.19,0,.22,0,.18-.29.47-.17.83,0,.62.34,1.22.57,1.53.06a.09.09,0,0,1,.12,0,1,1,0,0,1,.21.38,1.59,1.59,0,0,0,.65.84l.13.06c.2.1.4.21.61.33l.09.06.23.12.27.15a2.82,2.82,0,0,1,1.29,1.38M21.56,50.39a1.81,1.81,0,0,0,0,.81.87.87,0,0,0,.16.38l.16.11a.73.73,0,0,0,.47.11c.34,0,.63-.12,1-.13.63,0,1-.42,1.11-1.18a.5.5,0,0,1,.1-.24c.19-.32.12-.46-.33-.72-1.25-.66-2.33-.32-2.68.86m.52,1.77a.64.64,0,0,0-.6.17v.16a.39.39,0,0,0,.11.09c.24.14.6,0,.6-.12s0-.22-.11-.31"/></g></svg>