<svg id="图层_1" data-name="图层 1" xmlns="http://www.w3.org/2000/svg" xmlns:xlink="http://www.w3.org/1999/xlink" viewBox="0 0 85 85"><defs><style>.cls-1{isolation:isolate;}.cls-2{fill:url(#未命名的渐变_46);}.cls-3{fill:url(#未命名的渐变_48);}.cls-4{fill:url(#未命名的渐变_55);}.cls-5{fill:#e8f2ff;}.cls-6{fill:#fff;}</style><linearGradient id="未命名的渐变_46" x1="21.73" y1="9.36" x2="42.31" y2="87.82" gradientUnits="userSpaceOnUse"><stop offset="0" stop-color="#70bdfb"/><stop offset="1" stop-color="#5768ff"/></linearGradient><linearGradient id="未命名的渐变_48" x1="63.59" y1="24.35" x2="63.59" y2="85" gradientUnits="userSpaceOnUse"><stop offset="0" stop-color="#5c8bff"/><stop offset="1" stop-color="#2b37d2"/></linearGradient><linearGradient id="未命名的渐变_55" x1="11" y1="18.27" x2="74.14" y2="18.27" gradientUnits="userSpaceOnUse"><stop offset="0" stop-color="#81c6f7"/><stop offset="1" stop-color="#6496fd"/></linearGradient></defs><title>Hive</title><g class="cls-1"><polygon class="cls-2" points="53.18 36.53 53.04 85 10.86 60.65 11 12.18 53.18 36.53"/><polygon class="cls-3" points="53.18 36.53 74.14 24.35 74 72.82 53.04 85 53.18 36.53"/><polygon class="cls-4" points="11 12.18 31.96 0 74.14 24.35 53.18 36.53 11 12.18"/></g><g class="cls-1"><path class="cls-5" d="M11.5,13,52.68,36.82l-.13,47.32L11.36,60.36,11.5,13m-.5-.86-.14,48.47L53,85l.14-48.47L11,12.18Z"/><path class="cls-5" d="M73.63,25.22,73.5,72.53l-20,11.6.13-47.31,20-11.6m.5-.87-21,12.18L53,85,74,72.82l.14-48.47Z"/><path class="cls-5" d="M32,.58,73.14,24.35,53.18,36,12,12.18,32,.58M32,0,11,12.18,53.18,36.53l21-12.18L32,0Z"/></g><g class="cls-1"><path class="cls-6" d="M45.4,58.29a3.88,3.88,0,0,1,.34,2c-.22,1.5-.6,3.16-1.75,4.05s-2.33.66-4.17-.4c-.33-.19-.69-.42-1.1-.69s-.61-.45-.92-.68l-.6-.45a5.29,5.29,0,0,1-1.81-2.23,3.38,3.38,0,0,0-.64-.93,1.19,1.19,0,0,0-.32-.13,1.57,1.57,0,0,0,.07.36c.16.36.35.72.56,1.1l.26.48.14.27-.45.48-1.13-1.39c0,.38.18.75,1.17,1.69l.38.36-.25.22a1.56,1.56,0,0,1-.2.15c-.08,0-.2.12-.22.18a3,3,0,0,0,.17.33,3.66,3.66,0,0,1,.3.63,1.82,1.82,0,0,0,.93,1.19l.46.24.26.13c.36.19.72.36,1.08.52l.8.39v.35c0,.18,0,.39-.14.4l-.61,0a6.61,6.61,0,0,1-4-.72l-.11-.06a14.78,14.78,0,0,1-5-5.27,21.19,21.19,0,0,1-3-8.08c-.39-2.92-.11-4.84.89-6.06l-.58-.3L23.23,45,23.1,45a2,2,0,0,1-.9-1.28,30,30,0,0,0-2.52-5.95q-.22-.43-.43-.87c-1.33-2.78-1.3-4.61.09-5.75a1.19,1.19,0,0,1,1.19-.07,2.73,2.73,0,0,0,2.8-.12,2.34,2.34,0,0,1,.37-.19,2.17,2.17,0,0,0,.43-.24,1.42,1.42,0,0,1,1.74,0,6,6,0,0,1,1.06.83,72.33,72.33,0,0,1,6.48,7,3,3,0,0,0,.69.68.52.52,0,0,0,.61,0c.55-.4,1.51-.28,2.55.32A7.87,7.87,0,0,1,40.4,42.8c.63,1.42,1.17,2.87,1.69,4.27a1.9,1.9,0,0,1,.05,1.22,7.39,7.39,0,0,1-.33.88,3.73,3.73,0,0,0-.42,1.7A7.76,7.76,0,0,0,42,53c.17.42.34.85.48,1.27.31.93.57,1.83.77,2.68.06.26.12.3.15.32l.14.06.2,0H44a1.56,1.56,0,0,1,.78.17A1.63,1.63,0,0,1,45.4,58.29Zm-.75,1.16a1.49,1.49,0,0,0,0-.23,1,1,0,0,1-1.08.07,2.34,2.34,0,0,1-.75-.82L41.77,60l-.63-.78.28-.82-1.2-.26.52-.7-.53-.42.08-.76,1.16.67-.38-1.38.94.47a3.51,3.51,0,0,0-.1-.39c-.19-.54-.39-1.09-.59-1.64l-.3-.82c-.22-.61-.4-1.09-.54-1.47-.65-1.7-.66-1.81-.17-2.92.11-.26.25-.58.42-1l0-.07a.84.84,0,0,1,.07-.19,1.34,1.34,0,0,0-.06-1.28l-.43-1c-.49-1.09-1-2.21-1.6-3.26a3.69,3.69,0,0,0-1.34-1.35,1.72,1.72,0,0,0-2-.07,12.15,12.15,0,0,1,2.42,5.68,8.22,8.22,0,0,0,.33,1.18c.07.2.13.4.19.6l.23.78-.5.14-.17-.28-.13-.2a4,4,0,0,1-.35-.62l-.2-.5a20.55,20.55,0,0,1-.79-2.1,12.09,12.09,0,0,0-2.52-4.54l-1.61-1.89C31.57,38,30.8,37.1,30,36.23s-1.83-2-2.89-3.07a4.32,4.32,0,0,0-.85-.69,1.28,1.28,0,0,0-1.44,0,10.83,10.83,0,0,1-1.18.62l-.29.13,2.06,2.45-.2.66L25,36.11l-.24-.16a4.15,4.15,0,0,1-.59-.45l-.89-.84c-.36-.35-.74-.71-1.12-1a4.64,4.64,0,0,0-.74-.55c-.7-.4-1.12-.2-1.41.68a3.51,3.51,0,0,0,.34,2.64l.37.78c.87,1.84,1.77,3.74,2.6,5.63a2.73,2.73,0,0,0,1.07,1.36,1.89,1.89,0,0,0,.45.19c.51.15,1,.27,1.52.4.76.19,1.54.38,2.32.63s1.78.63,2.72,1l1.24.48L33,47l.05,1.4c0,.72.06,1.39.07,2a3,3,0,0,0,1,2.32,2.87,2.87,0,0,1,.76,1.76A5.13,5.13,0,0,0,35.62,58,4.94,4.94,0,0,1,36,59c0,.12.06.23.1.34.17-.22.33-.42.49-.64a.85.85,0,0,0,.11-.2l-.13-.09-.27-.14L36,57.48l1.15-.61.15.53a11.55,11.55,0,0,0,2.15,3.86l.07.09A5.44,5.44,0,0,0,41,62.84a1.73,1.73,0,0,0,2.08,0,5.08,5.08,0,0,0,1.53-3.35M28,47.09a1.76,1.76,0,0,0,0,.68c.41,3.31,2.25,5.94,4.38,8.51A10.68,10.68,0,0,1,31.82,55c-.57-1.64-1.1-3.29-1.62-4.89-.26-.8-.52-1.61-.79-2.41,0-.14-.1-.28-.14-.38A3.48,3.48,0,0,0,28,47.09m-.14,7.1c1.64,1.83,3.1,3.42,4.44,4.85l.11.08a1,1,0,0,0,.23.1,1.25,1.25,0,0,0-.43-1.1,23.54,23.54,0,0,1-4.7-5.83c0,.47.07,1,.13,1.44a1.26,1.26,0,0,0,.22.47m5.06,8.2a.6.6,0,0,0,.35,0,2,2,0,0,0-.28-.48c-1.11-1-2.2-2-3.36-3l-.48-.43a8,8,0,0,0,3.18,3.66,5.69,5.69,0,0,0,.58.3M34.47,65l-.25-.12.28.21,0-.09"/></g></svg>