<svg id="图层_1" data-name="图层 1" xmlns="http://www.w3.org/2000/svg" xmlns:xlink="http://www.w3.org/1999/xlink" viewBox="0 0 85 85"><defs><style>.cls-1{isolation:isolate;}.cls-2{fill:url(#未命名的渐变_46);}.cls-3{fill:url(#未命名的渐变_48);}.cls-4{fill:url(#未命名的渐变_55);}.cls-5{fill:#e8f2ff;}.cls-6{fill:#fff;}</style><linearGradient id="未命名的渐变_46" x1="21.73" y1="9.36" x2="42.31" y2="87.82" gradientUnits="userSpaceOnUse"><stop offset="0" stop-color="#70bdfb"/><stop offset="1" stop-color="#5768ff"/></linearGradient><linearGradient id="未命名的渐变_48" x1="63.59" y1="24.35" x2="63.59" y2="85" gradientUnits="userSpaceOnUse"><stop offset="0" stop-color="#5c8bff"/><stop offset="1" stop-color="#2b37d2"/></linearGradient><linearGradient id="未命名的渐变_55" x1="11" y1="18.27" x2="74.14" y2="18.27" gradientUnits="userSpaceOnUse"><stop offset="0" stop-color="#81c6f7"/><stop offset="1" stop-color="#6496fd"/></linearGradient></defs><title>JBOSS</title><g class="cls-1"><polygon class="cls-2" points="53.18 36.53 53.04 85 10.86 60.65 11 12.18 53.18 36.53"/><polygon class="cls-3" points="53.18 36.53 74.14 24.35 74 72.82 53.04 85 53.18 36.53"/><polygon class="cls-4" points="11 12.18 31.96 0 74.14 24.35 53.18 36.53 11 12.18"/></g><g class="cls-1"><path class="cls-5" d="M11.5,13,52.68,36.82l-.13,47.32L11.36,60.36,11.5,13m-.5-.86-.14,48.47L53,85l.14-48.47L11,12.18Z"/><path class="cls-5" d="M73.63,25.22,73.5,72.53l-20,11.6.13-47.31,20-11.6m.5-.87-21,12.18L53,85,74,72.82l.14-48.47Z"/><path class="cls-5" d="M32,.58,73.14,24.35,53.18,36,12,12.18,32,.58M32,0,11,12.18,53.18,36.53l21-12.18L32,0Z"/></g><g class="cls-1"><path class="cls-6" d="M22,44.17a5.38,5.38,0,0,1,2.45,4.35c0,1.62-1.13,2.27-2.56,1.45a5.59,5.59,0,0,1-2.55-4.51C19.46,43.89,20.6,43.35,22,44.17Z"/></g><g class="cls-1"><path class="cls-6" d="M21,41a5.1,5.1,0,0,1-2.26-4.12c.09-1.36,1.14-1.85,2.38-1.13a4.81,4.81,0,0,1,2.27,4A1.46,1.46,0,0,1,21,41Z"/></g><g class="cls-1"><path class="cls-6" d="M28.16,53.36A6.27,6.27,0,0,1,31,58.25c0,1.74-1.24,2.54-2.86,1.61A6.26,6.26,0,0,1,25.31,55C25.31,53.24,26.55,52.43,28.16,53.36Z"/></g><g class="cls-1"><path class="cls-6" d="M36.4,58.87a6.65,6.65,0,0,1,3.1,5.6c-.1,2-1.52,2.81-3.32,1.77a7.33,7.33,0,0,1-3.11-5.6C33.17,58.64,34.59,57.83,36.4,58.87Z"/></g><g class="cls-1"><path class="cls-6" d="M26.6,34.12c0,1.3-1,1.62-2,1a4.54,4.54,0,0,1-1.89-3.37,1.22,1.22,0,0,1,1.94-1.06l.15.09A4.35,4.35,0,0,1,26.6,34.12Z"/></g><g class="cls-1"><path class="cls-6" d="M44.19,52.19A5.47,5.47,0,0,1,45.31,56c-.19,1.31-.86,1.79-2,1.56a6.13,6.13,0,0,1-2.14-.86c-.57-.33-1.16-.71-1.74-1l-1.61-.93c-1.8-1-1.8-1-1.7-2.94.19-.1.19-.32,0-.76l-.19-.11a1.18,1.18,0,0,0-.1.6c-.59,1.27-1.82,1.44-3.37.55a8.75,8.75,0,0,1-1.37-1,7.26,7.26,0,0,1-2.45-5.64c0-.55.1-.71.57-.44l1.23.71.25.12a1.08,1.08,0,0,1,.51,1.09,2,2,0,0,0,1,2.08l.18.09c.95.55.95-.32,1-1.08l0-6.83c-.09-.92.1-1,.86-.59l7.29,4.21a7,7,0,0,1,2.64,2.4c1,1.52,1,3.41,0,4C43.72,51.38,43.72,51.59,44.19,52.19ZM41.63,54.3c.66.27.94-.22.94-1a2.27,2.27,0,0,0-1-1.68c-.43-.3-.85-.6-1.28-.84A4.21,4.21,0,0,0,39,50.27v.1a8.17,8.17,0,0,0,0,2.18.83.83,0,0,0,.42.58l.3.14.31.15a1.4,1.4,0,0,1,.3.22,7.94,7.94,0,0,0,1.33.65m-2.27-8.4c-.63-.36-.56.34-.56.91s0,1.13.52,1.43a1.7,1.7,0,0,0,.34.14c.25.14.54.36.85.54a2.69,2.69,0,0,0,.47.22c.66.27,1,.17,1-.59a1.85,1.85,0,0,0-1-1.68l-1.32-.76a2.39,2.39,0,0,0-.3-.21"/></g><g class="cls-1"><path class="cls-6" d="M30.48,35.06a3.74,3.74,0,0,1-1.79-3c0-1.08.76-1.62,1.71-1.07a3.93,3.93,0,0,1,1.8,3C32.19,35.06,31.43,35.6,30.48,35.06Z"/></g><g class="cls-1"><path class="cls-6" d="M36.46,37.09A3.22,3.22,0,0,1,35,34.54a.9.9,0,0,1,1.47-.79l.15.09A2.92,2.92,0,0,1,38,36.34C37.88,37.37,37.31,37.47,36.46,37.09Z"/></g></svg>