<svg id="图层_1" data-name="图层 1" xmlns="http://www.w3.org/2000/svg" xmlns:xlink="http://www.w3.org/1999/xlink" viewBox="0 0 85 85"><defs><style>.cls-1{isolation:isolate;}.cls-2{fill:url(#未命名的渐变_46);}.cls-3{fill:url(#未命名的渐变_48);}.cls-4{fill:url(#未命名的渐变_55);}.cls-5{fill:#e8f2ff;}.cls-6{fill:#fff;}</style><linearGradient id="未命名的渐变_46" x1="21.73" y1="9.36" x2="42.31" y2="87.82" gradientUnits="userSpaceOnUse"><stop offset="0" stop-color="#70bdfb"/><stop offset="1" stop-color="#5768ff"/></linearGradient><linearGradient id="未命名的渐变_48" x1="63.59" y1="24.35" x2="63.59" y2="85" gradientUnits="userSpaceOnUse"><stop offset="0" stop-color="#5c8bff"/><stop offset="1" stop-color="#2b37d2"/></linearGradient><linearGradient id="未命名的渐变_55" x1="11" y1="18.27" x2="74.14" y2="18.27" gradientUnits="userSpaceOnUse"><stop offset="0" stop-color="#81c6f7"/><stop offset="1" stop-color="#6496fd"/></linearGradient></defs><title>KAFUKA</title><g class="cls-1"><polygon class="cls-2" points="53.18 36.53 53.04 85 10.86 60.65 11 12.18 53.18 36.53"/><polygon class="cls-3" points="53.18 36.53 74.14 24.35 74 72.82 53.04 85 53.18 36.53"/><polygon class="cls-4" points="11 12.18 31.96 0 74.14 24.35 53.18 36.53 11 12.18"/></g><g class="cls-1"><path class="cls-5" d="M11.5,13,52.68,36.82l-.13,47.32L11.36,60.36,11.5,13m-.5-.86-.14,48.47L53,85l.14-48.47L11,12.18Z"/><path class="cls-5" d="M73.63,25.22,73.5,72.53l-20,11.6.13-47.31,20-11.6m.5-.87-21,12.18L53,85,74,72.82l.14-48.47Z"/><path class="cls-5" d="M32,.58,73.14,24.35,53.18,36,12,12.18,32,.58M32,0,11,12.18,53.18,36.53l21-12.18L32,0Z"/></g><g class="cls-1"><path class="cls-6" d="M27.25,32.29a7.17,7.17,0,0,1,3.21,5.38c0,1.68-1,2.56-2.43,2.1v2.09a10.52,10.52,0,0,1,2.08,2.25l3.55-.32V43c0-2.27,1.35-3.41,3.26-2.68a4.54,4.54,0,0,1,.64.31A8.68,8.68,0,0,1,41.26,46c.58,2.48-.3,4.29-2,4.25a3.57,3.57,0,0,1-1.68-.52,8.34,8.34,0,0,1-3.23-3.88l-3.07.25a9.16,9.16,0,0,1,.8,3.4,6.66,6.66,0,0,1-.32,1.81L34.9,55.1a2.83,2.83,0,0,1,2.69.32l.09.05a8.77,8.77,0,0,1,3.7,5c.61,2.11.26,3.91-.91,4.58a2.85,2.85,0,0,1-2.83-.29,6.92,6.92,0,0,1-1.58-1.29,8.91,8.91,0,0,1-2.43-5.77,5.42,5.42,0,0,1,.32-1.65l-3.06-3.79a3.16,3.16,0,0,1-2.9.17v2a6.87,6.87,0,0,1,2.41,4.89C30.28,61.27,28.87,62,27.16,61A7.17,7.17,0,0,1,24,55.63c0-1.68,1-2.56,2.43-2.1v-2a10.76,10.76,0,0,1-4-7.61c.08-2.61,1.78-3.86,4-3V38.84A6.87,6.87,0,0,1,24,34C24.13,32,25.55,31.31,27.25,32.29Z"/></g></svg>