<svg id="图层_1" data-name="图层 1" xmlns="http://www.w3.org/2000/svg" xmlns:xlink="http://www.w3.org/1999/xlink" viewBox="0 0 85 85"><defs><style>.cls-1{isolation:isolate;}.cls-2{fill:url(#未命名的渐变_46);}.cls-3{fill:url(#未命名的渐变_48);}.cls-4{fill:url(#未命名的渐变_55);}.cls-5{fill:#e8f2ff;}.cls-6{fill:#fff;}</style><linearGradient id="未命名的渐变_46" x1="21.73" y1="9.36" x2="42.31" y2="87.82" gradientUnits="userSpaceOnUse"><stop offset="0" stop-color="#70bdfb"/><stop offset="1" stop-color="#5768ff"/></linearGradient><linearGradient id="未命名的渐变_48" x1="63.59" y1="24.35" x2="63.59" y2="85" gradientUnits="userSpaceOnUse"><stop offset="0" stop-color="#5c8bff"/><stop offset="1" stop-color="#2b37d2"/></linearGradient><linearGradient id="未命名的渐变_55" x1="11" y1="18.27" x2="74.14" y2="18.27" gradientUnits="userSpaceOnUse"><stop offset="0" stop-color="#81c6f7"/><stop offset="1" stop-color="#6496fd"/></linearGradient></defs><title>KKSB</title><g class="cls-1"><polygon class="cls-2" points="53.18 36.53 53.04 85 10.86 60.65 11 12.18 53.18 36.53"/><polygon class="cls-3" points="53.18 36.53 74.14 24.35 74 72.82 53.04 85 53.18 36.53"/><polygon class="cls-4" points="11 12.18 31.96 0 74.14 24.35 53.18 36.53 11 12.18"/></g><g class="cls-1"><path class="cls-5" d="M11.5,13,52.68,36.82l-.13,47.32L11.36,60.36,11.5,13m-.5-.86-.14,48.47L53,85l.14-48.47L11,12.18Z"/><path class="cls-5" d="M73.63,25.22,73.5,72.53l-20,11.6.13-47.31,20-11.6m.5-.87-21,12.18L53,85,74,72.82l.14-48.47Z"/><path class="cls-5" d="M32,.58,73.14,24.35,53.18,36,12,12.18,32,.58M32,0,11,12.18,53.18,36.53l21-12.18L32,0Z"/></g><g class="cls-1"><path class="cls-6" d="M38.49,49.38a1.28,1.28,0,0,1,.58,1V53a.41.41,0,0,1-.17.38.42.42,0,0,1-.41,0l-7.87-4.54a1.21,1.21,0,0,1-.41-.43,1.18,1.18,0,0,1-.17-.57V45.18a.41.41,0,0,1,.17-.38.42.42,0,0,1,.41,0ZM37.9,51.7V50.37L31.2,46.49v1.34L37.9,51.7"/><path class="cls-6" d="M41.83,39a2,2,0,0,1,.29,1L42.06,58.1a.69.69,0,0,1-.29.63.7.7,0,0,1-.7-.07L34.71,55l0,7.24c0,.62-.44.87-1,.56a2.16,2.16,0,0,1-1-1.7l0-7.23-5.38-3.11a2.17,2.17,0,0,1-1-1.7V44.84L23.24,44a1,1,0,0,1-.33-.13,1.88,1.88,0,0,1-.57-.53,2.08,2.08,0,0,1-.41-1.16l0-6.44a1.16,1.16,0,0,1,0-.26c.11-.45.51-.56,1-.31l.16.11,3.35,2.83V36.76c0-.6.41-.86.93-.6l6.08,3.51V34.95a.69.69,0,0,1,.29-.63.7.7,0,0,1,.7.07l6.71,3.87A2,2,0,0,1,41.83,39ZM40.1,55.8l0-10L28.33,39l0,10L40.1,55.8m0-12.31V39.95L35.38,37.2v3.54l4.77,2.75m-13.85-1V40.3l-2.47-2.1v3.56l2.48.69"/><path class="cls-6" d="M37.81,46a1.37,1.37,0,0,1,.37.33,1.6,1.6,0,0,1,.37,1c0,.31-.14.51-.37.53a.63.63,0,0,1-.37-.1,1.37,1.37,0,0,1-.37-.33,1.62,1.62,0,0,1-.37-1c0-.31.15-.51.37-.53A.66.66,0,0,1,37.81,46Z"/></g></svg>