<svg id="图层_1" data-name="图层 1" xmlns="http://www.w3.org/2000/svg" xmlns:xlink="http://www.w3.org/1999/xlink" viewBox="0 0 85 85"><defs><style>.cls-1{isolation:isolate;}.cls-2{fill:url(#未命名的渐变_46);}.cls-3{fill:url(#未命名的渐变_48);}.cls-4{fill:url(#未命名的渐变_55);}.cls-5{fill:#e8f2ff;}.cls-6{fill:#fff;}</style><linearGradient id="未命名的渐变_46" x1="21.73" y1="9.36" x2="42.31" y2="87.82" gradientUnits="userSpaceOnUse"><stop offset="0" stop-color="#70bdfb"/><stop offset="1" stop-color="#5768ff"/></linearGradient><linearGradient id="未命名的渐变_48" x1="63.59" y1="24.35" x2="63.59" y2="85" gradientUnits="userSpaceOnUse"><stop offset="0" stop-color="#5c8bff"/><stop offset="1" stop-color="#2b37d2"/></linearGradient><linearGradient id="未命名的渐变_55" x1="11" y1="18.27" x2="74.14" y2="18.27" gradientUnits="userSpaceOnUse"><stop offset="0" stop-color="#81c6f7"/><stop offset="1" stop-color="#6496fd"/></linearGradient></defs><title>Kubernetes</title><g class="cls-1"><polygon class="cls-2" points="53.18 36.53 53.04 85 10.86 60.65 11 12.18 53.18 36.53"/><polygon class="cls-3" points="53.18 36.53 74.14 24.35 74 72.82 53.04 85 53.18 36.53"/><polygon class="cls-4" points="11 12.18 31.96 0 74.14 24.35 53.18 36.53 11 12.18"/></g><g class="cls-1"><path class="cls-5" d="M11.5,13,52.68,36.82l-.13,47.32L11.36,60.36,11.5,13m-.5-.86-.14,48.47L53,85l.14-48.47L11,12.18Z"/><path class="cls-5" d="M73.63,25.22,73.5,72.53l-20,11.6.13-47.31,20-11.6m.5-.87-21,12.18L53,85,74,72.82l.14-48.47Z"/><path class="cls-5" d="M32,.58,73.14,24.35,53.18,36,12,12.18,32,.58M32,0,11,12.18,53.18,36.53l21-12.18L32,0Z"/></g><g class="cls-1"><path class="cls-6" d="M30.26,48.49a.63.63,0,0,1,.06.52h0l-1,2.07a11.6,11.6,0,0,1-1.94-3.9v0l2.44.93.09,0A.85.85,0,0,1,30.26,48.49Z"/><path class="cls-6" d="M32.39,50.94l1.2,3.19h0a4.86,4.86,0,0,1-1.6-.61,8.14,8.14,0,0,1-1.58-1.21l1.21-1.8c.07-.11.2-.13.35-.05h0A.91.91,0,0,1,32.39,50.94Z"/><path class="cls-6" d="M29.54,46.24l-2.38-.57c0-.21,0-.42,0-.63a4,4,0,0,1,.73-2.5l1.85,3h0a.75.75,0,0,1,.13.54A.22.22,0,0,1,29.54,46.24Z"/><polygon class="cls-6" points="31.34 48.12 31.18 47.18 31.65 46.77 32.41 47.21 32.88 48.16 32.71 48.91 32.02 48.89 31.34 48.12"/><path class="cls-6" d="M34.18,50.56l2.46,1.89v0a2.53,2.53,0,0,1-2,1.67l-1-3.2c-.08-.29,0-.51.21-.51a.5.5,0,0,1,.19.07Z"/><path class="cls-6" d="M30.63,44.72l-2-2.83a3.19,3.19,0,0,1,2.85.07l-.15,2.77h0c0,.17-.1.28-.24.27a.39.39,0,0,1-.18-.06A.79.79,0,0,1,30.63,44.72Z"/><path class="cls-6" d="M36.8,49.4v0a7.42,7.42,0,0,1,.1,1.93l-2.39-2.17v0a1,1,0,0,1-.29-.52c0-.19,0-.34.14-.39l1.84-.84v0A10.27,10.27,0,0,1,36.8,49.4Z"/><path class="cls-6" d="M32.77,45.58l-.14-2.93,0,0a10.53,10.53,0,0,1,2.8,3.18l-2,.47a.36.36,0,0,1-.25-.05.74.74,0,0,1-.18-.15A.93.93,0,0,1,32.77,45.58Z"/><path class="cls-6" d="M43.34,56.72A1.35,1.35,0,0,1,43,58l-5.48,4.65a1,1,0,0,1-1.18,0l-8.76-5.06a3.18,3.18,0,0,1-1.18-1.32L21,45.28a2.56,2.56,0,0,1-.28-1.64l2-8.6a.8.8,0,0,1,.82-.69l7.9.23a1.35,1.35,0,0,1,.65.21,2.67,2.67,0,0,1,.66.55l7.87,8.88a3.46,3.46,0,0,1,.81,1.64Zm-3-1.85a1.06,1.06,0,0,0-.39-.89l-.14-.13c-.17-.13-.3-.2-.45-.3a7.74,7.74,0,0,1-.84-.65,1.24,1.24,0,0,1-.2-.35l-.19-.18a8.72,8.72,0,0,0-.1-2.65,12.86,12.86,0,0,0-.88-2.84l.18,0c0-.1,0-.2.09-.26a2.11,2.11,0,0,1,.7-.16,3.5,3.5,0,0,0,.39,0l.11,0c.22-.08.28-.41.12-.73a1,1,0,0,0-.36-.4.41.41,0,0,0-.34-.05l-.11,0a1.8,1.8,0,0,0-.31.2,2.18,2.18,0,0,1-.63.3.38.38,0,0,1-.18-.06l-.11-.07-.18,0a13.27,13.27,0,0,0-3.89-4.43l0-.26a.84.84,0,0,1-.16-.36,5.54,5.54,0,0,1,.06-.95c0-.17.06-.29.07-.48V39a1.1,1.1,0,0,0-.47-.88c-.26-.15-.47,0-.47.34v.15c0,.19,0,.36.06.55a5.88,5.88,0,0,1,0,1,.26.26,0,0,1-.15.19v.23a4,4,0,0,0-3.94-.1l-.18-.24-.13-.06a.52.52,0,0,1-.15-.13,10.18,10.18,0,0,1-.64-1c-.11-.19-.18-.36-.31-.56l-.1-.15a1.14,1.14,0,0,0-.33-.33c-.16-.09-.29-.1-.38,0s-.11.53.11.87l.11.16c.13.19.25.32.39.49a9.85,9.85,0,0,1,.7,1,.92.92,0,0,1,.09.37l.15.24a4.88,4.88,0,0,0-1,3.3,8.88,8.88,0,0,0,.06,1l-.19,0c-.05,0-.13.12-.2.12a4.83,4.83,0,0,1-.85-.33,4.55,4.55,0,0,0-.45-.23l-.12,0c-.29-.09-.47.1-.42.43a1.09,1.09,0,0,0,.49.7l.12.05.14,0a3,3,0,0,0,.42.05,4,4,0,0,1,.82.2,1.22,1.22,0,0,1,.27.26l.21.08a14.48,14.48,0,0,0,2.68,5.44l-.06.22a.69.69,0,0,1,0,.33,2.64,2.64,0,0,1-.43.63,2.26,2.26,0,0,0-.25.29l-.06.11a.87.87,0,0,0,.2.89.76.76,0,0,0,.19.16.31.31,0,0,0,.46-.08l.06-.11a3.36,3.36,0,0,0,.14-.42c.12-.29.19-.63.37-.77s.12,0,.2,0l.11-.16A10.17,10.17,0,0,0,32,55a6.2,6.2,0,0,0,2.17.8l.1.26a.8.8,0,0,1,.24.31,9.49,9.49,0,0,1,.32,1.11c0,.19.07.36.13.57l.06.17a1.19,1.19,0,0,0,.46.63.38.38,0,0,0,.19.06c.24,0,.33-.28.21-.65L35.85,58c-.08-.21-.17-.38-.25-.58a9.84,9.84,0,0,1-.42-1.1.37.37,0,0,1,0-.3l-.08-.27a3.18,3.18,0,0,0,2.72-2.32l.22.12a.27.27,0,0,1,.23,0,7.86,7.86,0,0,1,.86.77c.15.15.26.29.42.43l.12.11.15.1c.23.13.43.08.48-.14"/><path class="cls-6" d="M26,45.38v0Z"/><path class="cls-6" d="M27.16,45.66h0v0Z"/><path class="cls-6" d="M34.2,55.75h0Z"/></g></svg>