<svg id="图层_1" data-name="图层 1" xmlns="http://www.w3.org/2000/svg" xmlns:xlink="http://www.w3.org/1999/xlink" viewBox="0 0 85 85"><defs><style>.cls-1{isolation:isolate;}.cls-2{fill:url(#未命名的渐变_46);}.cls-3{fill:url(#未命名的渐变_48);}.cls-4{fill:url(#未命名的渐变_55);}.cls-5{fill:#e8f2ff;}.cls-6{fill:#fff;}</style><linearGradient id="未命名的渐变_46" x1="21.73" y1="9.36" x2="42.31" y2="87.82" gradientUnits="userSpaceOnUse"><stop offset="0" stop-color="#70bdfb"/><stop offset="1" stop-color="#5768ff"/></linearGradient><linearGradient id="未命名的渐变_48" x1="63.59" y1="24.35" x2="63.59" y2="85" gradientUnits="userSpaceOnUse"><stop offset="0" stop-color="#5c8bff"/><stop offset="1" stop-color="#2b37d2"/></linearGradient><linearGradient id="未命名的渐变_55" x1="11" y1="18.27" x2="74.14" y2="18.27" gradientUnits="userSpaceOnUse"><stop offset="0" stop-color="#81c6f7"/><stop offset="1" stop-color="#6496fd"/></linearGradient></defs><title>LDAP</title><g class="cls-1"><polygon class="cls-2" points="53.18 36.53 53.04 85 10.86 60.65 11 12.18 53.18 36.53"/><polygon class="cls-3" points="53.18 36.53 74.14 24.35 74 72.82 53.04 85 53.18 36.53"/><polygon class="cls-4" points="11 12.18 31.96 0 74.14 24.35 53.18 36.53 11 12.18"/></g><g class="cls-1"><path class="cls-5" d="M11.5,13,52.68,36.82l-.13,47.32L11.36,60.36,11.5,13m-.5-.86-.14,48.47L53,85l.14-48.47L11,12.18Z"/><path class="cls-5" d="M73.63,25.22,73.5,72.53l-20,11.6.13-47.31,20-11.6m.5-.87-21,12.18L53,85,74,72.82l.14-48.47Z"/><path class="cls-5" d="M32,.58,73.14,24.35,53.18,36,12,12.18,32,.58M32,0,11,12.18,53.18,36.53l21-12.18L32,0Z"/></g><polygon class="cls-6" points="17.7 36.15 17.67 45.28 21.18 47.31 21.18 49.23 15.67 46.05 15.7 34.99 17.7 36.15"/><g class="cls-1"><path class="cls-6" d="M25.73,40.78a9,9,0,0,1,5,8.27,3.43,3.43,0,0,1-1.41,3.3A3.59,3.59,0,0,1,25.89,52l-.2-.12L22.45,50l0-11.06Zm2.06,9.34a2.56,2.56,0,0,0,.82-2.25,5.77,5.77,0,0,0-.84-3.08,6.19,6.19,0,0,0-2.06-2.11l-.14-.08L24.48,42l0,7.21,1.09.63.15.09a2.08,2.08,0,0,0,2.09.2"/></g><g class="cls-1"><path class="cls-6" d="M34.73,46l2.36,1.36,3.34,13-2.18-1.26-.7-2.95-3.41-2-.69,2.14-2.18-1.26Zm-.16,6.63,2.5,1.44L36,49.6a6.46,6.46,0,0,1-.14-1.06l-.06,0a3.67,3.67,0,0,1-.17.85l-1.09,3.25"/></g><g class="cls-1"><path class="cls-6" d="M48.37,57.36a2,2,0,0,1-1.07,2.1,2.94,2.94,0,0,1-2.44-.41l-.2-.12-1-.6v3.85l-2-1.15,0-11.06,3.23,1.86A6.14,6.14,0,0,1,48.37,57.36Zm-2.6,0a1.07,1.07,0,0,0,.49-1.13,3.15,3.15,0,0,0-1.44-2.62,1.64,1.64,0,0,0-.3-.14L43.64,53v3.56l.87.5a2.26,2.26,0,0,0,.29.2,1.09,1.09,0,0,0,1,.14"/></g></svg>