<svg id="图层_1" data-name="图层 1" xmlns="http://www.w3.org/2000/svg" xmlns:xlink="http://www.w3.org/1999/xlink" viewBox="0 0 85 85"><defs><style>.cls-1{isolation:isolate;}.cls-2{fill:url(#未命名的渐变_46);}.cls-3{fill:url(#未命名的渐变_48);}.cls-4{fill:url(#未命名的渐变_55);}.cls-5{fill:#e8f2ff;}.cls-6{fill:#fff;}</style><linearGradient id="未命名的渐变_46" x1="21.73" y1="9.36" x2="42.31" y2="87.82" gradientUnits="userSpaceOnUse"><stop offset="0" stop-color="#70bdfb"/><stop offset="1" stop-color="#5768ff"/></linearGradient><linearGradient id="未命名的渐变_48" x1="63.59" y1="24.35" x2="63.59" y2="85" gradientUnits="userSpaceOnUse"><stop offset="0" stop-color="#5c8bff"/><stop offset="1" stop-color="#2b37d2"/></linearGradient><linearGradient id="未命名的渐变_55" x1="11" y1="18.27" x2="74.14" y2="18.27" gradientUnits="userSpaceOnUse"><stop offset="0" stop-color="#81c6f7"/><stop offset="1" stop-color="#6496fd"/></linearGradient></defs><title>Linux</title><g class="cls-1"><polygon class="cls-2" points="53.18 36.53 53.04 85 10.86 60.65 11 12.18 53.18 36.53"/><polygon class="cls-3" points="53.18 36.53 74.14 24.35 74 72.82 53.04 85 53.18 36.53"/><polygon class="cls-4" points="11 12.18 31.96 0 74.14 24.35 53.18 36.53 11 12.18"/></g><g class="cls-1"><path class="cls-5" d="M11.5,13,52.68,36.82l-.13,47.32L11.36,60.36,11.5,13m-.5-.86-.14,48.47L53,85l.14-48.47L11,12.18Z"/><path class="cls-5" d="M73.63,25.22,73.5,72.53l-20,11.6.13-47.31,20-11.6m.5-.87-21,12.18L53,85,74,72.82l.14-48.47Z"/><path class="cls-5" d="M32,.58,73.14,24.35,53.18,36,12,12.18,32,.58M32,0,11,12.18,53.18,36.53l21-12.18L32,0Z"/></g><g class="cls-1"><path class="cls-6" d="M30.8,37.5c-.05,0-.1.06-.17,0l-.16-.19c0-.1.11-.09.19-.08a.45.45,0,0,1,.18.06.49.49,0,0,1,.14.12l0,.1C31,37.57,30.86,37.5,30.8,37.5Z"/><path class="cls-6" d="M31.89,38.13c-.06-.07-.18-.13-.19-.22l0-.06a.24.24,0,0,1,.13,0A.89.89,0,0,1,32,38c.07.08.2.21.18.3h-.17C32,38.3,31.95,38.19,31.89,38.13Z"/><path class="cls-6" d="M43.36,63.42a5.49,5.49,0,0,1,.89,2.49c0,.53-.38.7-.8.75-.86.1-2.16-.2-3,.44a2.54,2.54,0,0,1-2.8.24l-.2-.11a5,5,0,0,1-2.12-2.76,3.51,3.51,0,0,1-.14-.53l-.31-.17a14.64,14.64,0,0,1-1.43-1,14.91,14.91,0,0,0-1.26-.87l-.19-.1c-1.27-.66-2.07-.76-2.8-1.17a1.14,1.14,0,0,1-1.5.48,3.76,3.76,0,0,1-.74-.34,10.09,10.09,0,0,1-2.49-2.22,21.46,21.46,0,0,0-3.43-2.81,3.52,3.52,0,0,1-1.16-1.49,2.82,2.82,0,0,1,.14-2,4.37,4.37,0,0,0,0-1.41,6.08,6.08,0,0,1-.07-.83,1.39,1.39,0,0,1,.16-.73,1,1,0,0,1,1.08-.35c.39.07.74.16,1,0s.59-.62,1-.79a7.27,7.27,0,0,1,.37-3.33,10.26,10.26,0,0,1,3.38-4.48,5.18,5.18,0,0,0,1.31-3.55c.07-2.08-1.39-9.82,4.54-6.38,4.68,2.71,4.39,8.22,4.35,11.26,0,2,.94,3.9,1.92,5.9a35.38,35.38,0,0,1,2.67,6.5,9.31,9.31,0,0,1,.2,5.38,2.13,2.13,0,0,1,.24.27c.08.1.16.21.23.32a4.75,4.75,0,0,1,.61,1.84A5.42,5.42,0,0,0,43.36,63.42ZM31.8,60.47a5.16,5.16,0,0,0,3.78.69,8.55,8.55,0,0,0,.4-1.7,14.42,14.42,0,0,1,.26-2.5c.18-.73.54-1.23,1.24-1.1.08-.81.47-.92,1-.6a5.74,5.74,0,0,1,1.2,1.05c1.09,1.2,1.5,1.93,1.31,2.5l.14.08.11.06c.3-.95-.82-2.33-1.77-3.34a5.78,5.78,0,0,0,0-2.38,16.15,16.15,0,0,0-2-5.1c-.13-.08-.12.06.15.52.67,1.1,2.14,4.51,1.33,6.42a3.75,3.75,0,0,0-.58-.43,29.37,29.37,0,0,0-1.4-5.11,61.31,61.31,0,0,1-2.13-7.6,1.35,1.35,0,0,1-1.29.24,4.32,4.32,0,0,0-.92.07,2.15,2.15,0,0,1-1.25-.31,3.73,3.73,0,0,1-1.21-1.18c-.26-.39-.46-.78-.73-1.11-.09-.11-.29-.39-.36-.48-.12,2.45-1.59,4.76-2.29,6.18A9.22,9.22,0,0,0,26,49a5.39,5.39,0,0,1,.16-5.39c.49-.75.61-1.06.55-1.09a7.26,7.26,0,0,0-1.62,3,5.18,5.18,0,0,0,0,2.34,7.35,7.35,0,0,0,1.42,2.81,19.74,19.74,0,0,1,2.21,3.44,2.88,2.88,0,0,1,.42,1.9c-.15.36-.56.27-1,0,.28.56.59,1.21.83,1.78a9.38,9.38,0,0,0,2.83,2.65M29,59.59c.13-1.3-1.81-4.31-2.36-5.95l-1.13-3a4.7,4.7,0,0,0-1.26-1.8l-.2-.13a.7.7,0,0,0-.83,0c-.28.17-.51.52-.83.72s-.54.1-1.13,0c-.36-.07-.65-.07-.86.26A2.39,2.39,0,0,0,20.39,51a4.31,4.31,0,0,1,0,1.61,2.39,2.39,0,0,0-.16,1.68c.45,1.29,2.69,2,4.42,4A9.69,9.69,0,0,0,27,60.35c1.06.61,1.92.56,2-.76m11.15,7c1.28-1,3.61.11,3.66-1a4.92,4.92,0,0,0-.79-2.09c-.57-1.09-.41-2.44-1-3.33a2.45,2.45,0,0,0-.94-.89l-.37-.21a1.91,1.91,0,0,1-1.93,0,1.79,1.79,0,0,1-.29-.21,3.91,3.91,0,0,1-1.08-2.59h-.06c-.41,0-.64.35-.79,1a14.22,14.22,0,0,0-.25,2.43,12.32,12.32,0,0,1-.58,2.36,4.06,4.06,0,0,0-.07,2.38,4.11,4.11,0,0,0,1.76,2.31l.18.1a2.33,2.33,0,0,0,2.53-.24M28.92,37.29c-.25.08-.33.31-.25.67a4,4,0,0,0,.84,1.51c.45.56.69,1.16,1.16,1.67a2.6,2.6,0,0,0,.56.46l.14.08c1,.56,1.46.08,2.07.2s1.17-.06,1.31-.45-.12-1-.6-1.56c-.65-.71-.95-.89-1.31-1.37A5.37,5.37,0,0,0,31.35,37a1.44,1.44,0,0,0-1.61,0l-.82.23m3.15-1.46a2.51,2.51,0,0,0-.18,1.35,8.63,8.63,0,0,1,.75.73c-.11-.86.25-1.39.66-1.15l0,0a2,2,0,0,1,.52,2.12c0,.1-.16.13-.23.17.39.38.64.64.73.75a2.47,2.47,0,0,0,.26-2.54,3.23,3.23,0,0,0-1.27-1.81.83.83,0,0,0-1.27.36m-2.36-2.12c-1.09-.63-1.39,1.69-.49,3.18.45-.12.4-.08.34-.17-.46-.72-.37-2,.11-1.8h0a2,2,0,0,1,.53,1.61,1.21,1.21,0,0,1,.59,0,3.4,3.4,0,0,0-1.1-2.87"/><path class="cls-6" d="M29.14,38.23c-.2-.3-.18-.54-.1-.49s.16.32.25.47.26.44.44.71a4.72,4.72,0,0,0,1.44,1.47,3,3,0,0,0,1.73.32,4.2,4.2,0,0,0,.8-.18c.19-.05.19-.24.33-.15h0c.16.11,0,.24-.18.34a2.66,2.66,0,0,1-.86.2,3.17,3.17,0,0,1-1.84-.34A5.23,5.23,0,0,1,29.6,39C29.41,38.69,29.26,38.42,29.14,38.23Z"/></g></svg>