<svg id="图层_1" data-name="图层 1" xmlns="http://www.w3.org/2000/svg" xmlns:xlink="http://www.w3.org/1999/xlink" viewBox="0 0 85 85"><defs><style>.cls-1{isolation:isolate;}.cls-2{fill:url(#未命名的渐变_48);}.cls-3{fill:url(#未命名的渐变_55);}.cls-4{fill:aqua;}.cls-5{fill:none;stroke:#e8f2ff;stroke-linecap:round;stroke-linejoin:round;stroke-width:0.5px;}.cls-6{fill:#e8f2ff;}.cls-7{fill:#f3f8ff;}</style><linearGradient id="未命名的渐变_48" x1="42.5" y1="30.73" x2="42.5" y2="78.64" gradientUnits="userSpaceOnUse"><stop offset="0" stop-color="#5c8bff"/><stop offset="1" stop-color="#2b37d2"/></linearGradient><linearGradient id="未命名的渐变_55" x1="0.38" y1="30.86" x2="85" y2="30.86" gradientUnits="userSpaceOnUse"><stop offset="0" stop-color="#81c6f7"/><stop offset="1" stop-color="#6496fd"/></linearGradient></defs><title>LYQ</title><g class="cls-1"><path class="cls-2" d="M84.62,54.64c0-.12,0-.25,0-.37L85,31c0,.41-.07.83-.11,1.24s-.07.89-.15,1.33-.18.72-.27,1.09-.21.84-.36,1.26-.29.69-.44,1-.38.88-.62,1.32-.38.63-.57.94c-.31.5-.63,1-1,1.48s-.72.94-1.12,1.4l-.28.32c-.54.6-1.15,1.18-1.78,1.75-.41.37-.86.72-1.3,1.08s-.76.63-1.18.93-1,.68-1.53,1-1,.7-1.6,1a43.94,43.94,0,0,1-4,2l-1.2.51q-1.63.68-3.33,1.26c-.4.14-.8.29-1.21.42-.72.22-1.45.42-2.19.62-.55.15-1.1.31-1.66.45-.77.19-1.56.34-2.35.5-.53.11-1.05.23-1.59.32-1.58.28-3.19.5-4.81.67-.5.05-1,.08-1.51.13-.95.08-1.9.15-2.85.19l-1.83.05c-.77,0-1.54,0-2.31,0l-1.94-.05c-.71,0-1.42-.07-2.14-.11s-1.31-.1-2-.16-1.41-.15-2.11-.24l-1.89-.27q-1.13-.18-2.24-.39l-1.76-.35c-.89-.19-1.76-.41-2.62-.64-.49-.13-1-.25-1.45-.39-1.55-.45-3.07-1-4.54-1.53-.73-.28-1.44-.6-2.15-.91-.36-.16-.73-.31-1.09-.47-1.07-.51-2.11-1-3.11-1.62C6.62,44.58,2.71,40.11,1.15,35.45a14.73,14.73,0,0,1-.77-4.71L0,54c0,6.32,4.16,12.64,12.5,17.46,1,.58,2,1.11,3.1,1.62.36.17.73.32,1.1.48.63.28,1.26.57,1.91.83l.23.08c1.47.57,3,1.08,4.54,1.53l.37.13c.35.1.72.17,1.08.26.87.23,1.74.45,2.63.64l.7.17c.34.07.7.12,1,.18.74.14,1.49.27,2.24.39.3,0,.6.11.9.16s.66.07,1,.11q1.05.13,2.11.24l1,.11.95.05c.71,0,1.42.09,2.13.11.36,0,.72,0,1.08.06h.86c.77,0,1.54,0,2.31,0,.38,0,.77,0,1.15,0l.68,0c1,0,1.9-.11,2.85-.19.38,0,.77,0,1.16-.08l.35,0c1.62-.17,3.22-.39,4.81-.67l.23,0c.46-.08.9-.2,1.36-.29.79-.16,1.57-.31,2.34-.5.56-.14,1.1-.3,1.66-.45.73-.2,1.47-.4,2.19-.62l.46-.13c.26-.08.49-.2.75-.28q1.71-.58,3.34-1.26l1.2-.51a44.11,44.11,0,0,0,4-2l.52-.31c.39-.23.72-.49,1.09-.73.52-.34,1-.67,1.53-1s.79-.62,1.18-.93.9-.71,1.31-1.08l.26-.22c.54-.5,1-1,1.52-1.53l.28-.32c.28-.32.57-.64.83-1,.11-.14.18-.29.29-.43.36-.49.69-1,1-1.48.13-.21.3-.41.42-.62s.09-.21.15-.32c.24-.44.43-.88.62-1.32.11-.26.26-.51.36-.77,0-.09,0-.18.08-.26.15-.42.25-.84.36-1.26s.19-.57.25-.86c0-.08,0-.15,0-.23a7.45,7.45,0,0,0,.15-1.33"/><path class="cls-3" d="M72.52,13.54c16.58,9.57,16.65,25.08.17,34.66s-43.23,9.57-59.81,0-16.69-25.08-.22-34.66S55.94,4,72.52,13.54Z"/></g><path class="cls-4" d="M84.81,41.27c0,.12,0,.25,0,.37l-.1.87a7.45,7.45,0,0,1-.15,1.33c0,.08,0,.15,0,.23-.06.29-.17.57-.25.86s-.21.84-.36,1.26c0,.09,0,.18-.08.26-.1.26-.25.51-.36.77-.19.44-.38.88-.62,1.32-.06.11-.09.21-.15.32s-.29.41-.42.62c-.31.5-.63,1-1,1.48-.11.14-.18.29-.29.43-.26.33-.55.65-.83,1l-.28.32c-.47.52-1,1-1.52,1.53l-.26.22c-.41.37-.86.72-1.31,1.08s-.76.63-1.18.93-1,.68-1.53,1c-.37.24-.7.49-1.09.73l-.52.31a44.11,44.11,0,0,1-4,2l-1.2.51q-1.63.68-3.34,1.26c-.25.09-.49.2-.75.28l-.46.13c-.72.23-1.45.42-2.18.62-.55.15-1.1.31-1.66.45-.77.19-1.56.34-2.34.5-.46.09-.9.21-1.36.29l-.23,0c-1.58.28-3.19.5-4.81.67l-.35,0c-.38,0-.77,0-1.16.08-.95.08-1.9.15-2.85.19l-.68,0c-.38,0-.77,0-1.15,0-.77,0-1.54,0-2.31,0h-.86c-.36,0-.72,0-1.08-.06-.71,0-1.42-.07-2.13-.11l-.95-.05-1-.11q-1.06-.1-2.11-.24c-.33,0-.66-.06-1-.11s-.6-.11-.9-.16c-.75-.12-1.5-.25-2.24-.39-.35-.07-.7-.11-1-.18l-.7-.17c-.89-.2-1.76-.41-2.63-.64-.36-.09-.73-.16-1.08-.26L23.57,63c-1.55-.45-3.07-1-4.54-1.53l-.23-.08c-.65-.26-1.28-.55-1.91-.83-.36-.16-.74-.31-1.1-.48-1.07-.51-2.11-1-3.1-1.62C4.73,53.89.58,47.93.22,41.91L.19,44c0,6.32,4.16,12.64,12.5,17.46,1,.58,2,1.11,3.1,1.62.36.17.73.32,1.1.48.63.28,1.26.57,1.91.83l.23.08c1.47.57,3,1.08,4.54,1.53l.37.13c.35.1.72.17,1.08.26.87.23,1.74.45,2.63.64l.7.17c.34.07.7.12,1,.18.74.14,1.49.27,2.24.39.3,0,.6.11.9.16s.66.07,1,.11q1.05.13,2.11.24l1,.11.95.05c.71,0,1.42.09,2.13.11.36,0,.72,0,1.08.06h.86c.77,0,1.54,0,2.31,0,.38,0,.77,0,1.15,0l.68,0c1,0,1.9-.11,2.85-.19.38,0,.77,0,1.16-.08l.35,0c1.62-.17,3.22-.39,4.81-.67l.23,0c.46-.08.9-.2,1.36-.29.79-.16,1.57-.31,2.34-.5.56-.14,1.1-.3,1.66-.45.73-.2,1.47-.4,2.18-.62l.46-.13c.26-.08.49-.2.75-.28q1.71-.58,3.34-1.26l1.2-.51a44.11,44.11,0,0,0,4-2l.52-.31c.39-.23.72-.49,1.09-.73.52-.34,1-.67,1.53-1s.79-.62,1.18-.93.9-.71,1.31-1.08l.26-.22c.54-.5,1-1,1.52-1.53l.28-.32c.28-.32.57-.64.83-1,.11-.14.18-.29.29-.43.36-.49.69-1,1-1.48.13-.21.3-.41.42-.62s.09-.21.15-.32c.24-.44.43-.88.62-1.32.11-.26.26-.51.36-.77,0-.09,0-.18.08-.26.15-.42.25-.84.36-1.26s.19-.57.25-.86c0-.08,0-.15,0-.23a7.45,7.45,0,0,0,.15-1.33l.1-.87c0-.12,0-.25,0-.37"/><g class="cls-1"><path class="cls-5" d="M84.89,32.21c0,.44-.07.89-.15,1.33s-.18.72-.27,1.09-.21.84-.36,1.26-.29.69-.44,1-.38.88-.62,1.32-.38.63-.57.94c-.31.5-.63,1-1,1.48s-.72.94-1.12,1.4l-.28.32c-.54.6-1.15,1.18-1.78,1.75-.41.37-.86.72-1.3,1.08s-.76.63-1.18.93-1,.68-1.53,1-1,.7-1.6,1a43.94,43.94,0,0,1-4,2l-1.2.51q-1.63.68-3.33,1.26c-.4.14-.8.29-1.21.42-.72.22-1.45.42-2.19.62-.55.15-1.1.31-1.66.45-.77.19-1.56.34-2.35.5-.53.11-1.05.23-1.59.32-1.58.28-3.19.5-4.81.67-.5.05-1,.08-1.51.13-.95.08-1.9.15-2.85.19l-1.83.05c-.77,0-1.54,0-2.31,0l-1.94-.05c-.71,0-1.42-.07-2.14-.11s-1.31-.1-2-.16-1.41-.15-2.11-.24l-1.89-.27q-1.13-.18-2.24-.39l-1.76-.35c-.89-.19-1.76-.41-2.62-.64-.49-.13-1-.25-1.45-.39-1.55-.45-3.07-1-4.54-1.53-.73-.28-1.44-.6-2.15-.91-.36-.16-.73-.31-1.09-.47-1.07-.51-2.11-1-3.11-1.62C6.62,44.58,2.71,40.11,1.15,35.45a14.73,14.73,0,0,1-.77-4.71L0,54c0,6.32,4.16,12.64,12.5,17.46,1,.58,2,1.11,3.1,1.62.36.17.73.32,1.1.48.63.28,1.26.57,1.91.83l.23.08c1.47.57,3,1.08,4.54,1.53l.37.13c.35.1.72.17,1.08.26.87.23,1.74.45,2.63.64l.7.17c.34.07.7.12,1,.18.74.14,1.49.27,2.24.39.3,0,.6.11.9.16s.66.07,1,.11q1.05.13,2.11.24l1,.11.95.05c.71,0,1.42.09,2.13.11.36,0,.72,0,1.08.06h.86c.77,0,1.54,0,2.31,0,.38,0,.77,0,1.15,0l.68,0c1,0,1.9-.11,2.85-.19.38,0,.77,0,1.16-.08l.35,0c1.62-.17,3.22-.39,4.81-.67l.23,0c.46-.08.9-.2,1.36-.29.79-.16,1.57-.31,2.34-.5.56-.14,1.1-.3,1.66-.45.73-.2,1.47-.4,2.19-.62l.46-.13c.26-.08.49-.2.75-.28q1.71-.58,3.34-1.26l1.2-.51a44.11,44.11,0,0,0,4-2l.52-.31c.39-.23.72-.49,1.09-.73.52-.34,1-.67,1.53-1s.79-.62,1.18-.93.9-.71,1.31-1.08l.26-.22c.54-.5,1-1,1.52-1.53l.28-.32c.28-.32.57-.64.83-1,.11-.14.18-.29.29-.43.36-.49.69-1,1-1.48.13-.21.3-.41.42-.62s.09-.21.15-.32c.24-.44.43-.88.62-1.32.11-.26.26-.51.36-.77,0-.09,0-.18.08-.26.15-.42.25-.84.36-1.26s.19-.57.25-.86c0-.08,0-.15,0-.23a7.45,7.45,0,0,0,.15-1.33l.1-.87c0-.12,0-.25,0-.37Z"/><path class="cls-6" d="M42.55,6.36v.5h0c11.22,0,21.77,2.53,29.71,7.11S84.49,24.54,84.5,30.91,80.23,43.24,72.44,47.76,54,54.87,42.83,54.87s-21.75-2.53-29.7-7.11S.89,37.18.88,30.79,5.14,18.48,12.92,14,31.33,6.86,42.55,6.86v-.5m0,0c-10.83,0-21.65,2.39-29.89,7.18-16.47,9.57-16.36,25.08.22,34.66C21.17,53,32,55.37,42.83,55.37S64.46,53,72.69,48.19c16.47-9.57,16.41-25.08-.17-34.66-8.29-4.79-19.13-7.18-30-7.18Z"/></g><g class="cls-1"><polygon class="cls-7" points="56.11 18.25 46.7 18.25 46.74 25.29 38.22 25.29 38.18 18.25 28.78 18.25 42.4 10.33 56.11 18.25"/></g><polygon class="cls-7" points="73.15 29.01 59.53 37.35 59.5 32.34 48.55 32.34 48.53 27.64 59.48 27.64 59.45 21.64 73.15 29.01"/><g class="cls-1"><polygon class="cls-7" points="36.45 27.64 36.47 32.34 25.52 32.34 25.55 37.36 11.85 29.23 25.47 21.76 25.5 27.64 36.45 27.64"/></g><polygon class="cls-7" points="46.78 32.34 46.82 39.39 56.22 39.39 42.6 47.3 28.89 39.39 38.3 39.39 38.26 32.34 46.78 32.34"/></svg>