<svg id="图层_1" data-name="图层 1" xmlns="http://www.w3.org/2000/svg" xmlns:xlink="http://www.w3.org/1999/xlink" viewBox="0 0 85 85"><defs><style>.cls-1{isolation:isolate;}.cls-2{fill:url(#未命名的渐变_46);}.cls-3{fill:url(#未命名的渐变_48);}.cls-4{fill:url(#未命名的渐变_55);}.cls-5{fill:#e8f2ff;}.cls-6{fill:#fff;}</style><linearGradient id="未命名的渐变_46" x1="21.73" y1="9.36" x2="42.31" y2="87.82" gradientUnits="userSpaceOnUse"><stop offset="0" stop-color="#70bdfb"/><stop offset="1" stop-color="#5768ff"/></linearGradient><linearGradient id="未命名的渐变_48" x1="63.59" y1="24.35" x2="63.59" y2="85" gradientUnits="userSpaceOnUse"><stop offset="0" stop-color="#5c8bff"/><stop offset="1" stop-color="#2b37d2"/></linearGradient><linearGradient id="未命名的渐变_55" x1="11" y1="18.27" x2="74.14" y2="18.27" gradientUnits="userSpaceOnUse"><stop offset="0" stop-color="#81c6f7"/><stop offset="1" stop-color="#6496fd"/></linearGradient></defs><title>MYSQL</title><g class="cls-1"><polygon class="cls-2" points="53.18 36.53 53.04 85 10.86 60.65 11 12.18 53.18 36.53"/><polygon class="cls-3" points="53.18 36.53 74.14 24.35 74 72.82 53.04 85 53.18 36.53"/><polygon class="cls-4" points="11 12.18 31.96 0 74.14 24.35 53.18 36.53 11 12.18"/></g><g class="cls-1"><path class="cls-5" d="M11.5,13,52.68,36.82l-.13,47.32L11.36,60.36,11.5,13m-.5-.86-.14,48.47L53,85l.14-48.47L11,12.18Z"/><path class="cls-5" d="M73.63,25.22,73.5,72.53l-20,11.6.13-47.31,20-11.6m.5-.87-21,12.18L53,85,74,72.82l.14-48.47Z"/><path class="cls-5" d="M32,.58,73.14,24.35,53.18,36,12,12.18,32,.58M32,0,11,12.18,53.18,36.53l21-12.18L32,0Z"/></g><g class="cls-1"><path class="cls-6" d="M47.23,70.78l.11.06a39.24,39.24,0,0,1-3.95-2,43.73,43.73,0,0,1-5.77-4,60.92,60.92,0,0,1-10-10.47l.12.24a30.34,30.34,0,0,1-2.63-4.68c-.3-.72-.68-1.77-1.14-3.16a5,5,0,0,0-.09.93,4.35,4.35,0,0,1-.18,1.47.46.46,0,0,1-.73.27l-.15-.1-.09-.08a8.43,8.43,0,0,1-1.89-4,9.91,9.91,0,0,1,0-4.4A5,5,0,0,0,21,38.55a18.79,18.79,0,0,1-1.37-3.94A15.81,15.81,0,0,0,18,30.16a13.56,13.56,0,0,1-1.23-2.79c-.14-.57-.05-1,.31-1a1.29,1.29,0,0,1,.72.23,7,7,0,0,1,.83.58A11.64,11.64,0,0,1,20.4,29c.19.25.7.94.72,1a4.26,4.26,0,0,0,1,1l.21.15.21.16c.32.23.53.37.73.53a17.41,17.41,0,0,1,3.09,3,37.68,37.68,0,0,1,6,10.51c.34.91.62,1.77.88,2.73.16.58.3,1.14.44,1.72l.13.51a12.57,12.57,0,0,0,.7,2.14,5,5,0,0,0,1.1,1.61,26.81,26.81,0,0,1,4.9,6.1,6.62,6.62,0,0,1,.52,1c.13.38.12.68-.1.78a.72.72,0,0,1-.57-.1c-.15-.07-.28-.14-.66-.36-.55-.32-.74-.43-1-.55a8,8,0,0,0-1.13-.44l-.46-.16.33.54a35,35,0,0,0,2.62,3.64,38.14,38.14,0,0,0,3.58,3.83l-.25-.2A28.22,28.22,0,0,0,47.23,70.78ZM23.46,37a1.19,1.19,0,0,0,.43-1,3.06,3.06,0,0,0-1.26-2.46.86.86,0,0,0-.75-.1L23.46,37"/></g></svg>