<svg id="图层_1" data-name="图层 1" xmlns="http://www.w3.org/2000/svg" xmlns:xlink="http://www.w3.org/1999/xlink" viewBox="0 0 85 85"><defs><style>.cls-1{isolation:isolate;}.cls-2{fill:url(#未命名的渐变_46);}.cls-3{fill:url(#未命名的渐变_48);}.cls-4{fill:url(#未命名的渐变_55);}.cls-5{fill:#e8f2ff;}.cls-6{fill:#fff;}</style><linearGradient id="未命名的渐变_46" x1="21.73" y1="9.36" x2="42.31" y2="87.82" gradientUnits="userSpaceOnUse"><stop offset="0" stop-color="#70bdfb"/><stop offset="1" stop-color="#5768ff"/></linearGradient><linearGradient id="未命名的渐变_48" x1="63.59" y1="24.35" x2="63.59" y2="85" gradientUnits="userSpaceOnUse"><stop offset="0" stop-color="#5c8bff"/><stop offset="1" stop-color="#2b37d2"/></linearGradient><linearGradient id="未命名的渐变_55" x1="11" y1="18.27" x2="74.14" y2="18.27" gradientUnits="userSpaceOnUse"><stop offset="0" stop-color="#81c6f7"/><stop offset="1" stop-color="#6496fd"/></linearGradient></defs><title>NGINX</title><g class="cls-1"><polygon class="cls-2" points="53.18 36.53 53.04 85 10.86 60.65 11 12.18 53.18 36.53"/><polygon class="cls-3" points="53.18 36.53 74.14 24.35 74 72.82 53.04 85 53.18 36.53"/><polygon class="cls-4" points="11 12.18 31.96 0 74.14 24.35 53.18 36.53 11 12.18"/></g><g class="cls-1"><path class="cls-5" d="M11.5,13,52.68,36.82l-.13,47.32L11.36,60.36,11.5,13m-.5-.86-.14,48.47L53,85l.14-48.47L11,12.18Z"/><path class="cls-5" d="M73.63,25.22,73.5,72.53l-20,11.6.13-47.31,20-11.6m.5-.87-21,12.18L53,85,74,72.82l.14-48.47Z"/><path class="cls-5" d="M32,.58,73.14,24.35,53.18,36,12,12.18,32,.58M32,0,11,12.18,53.18,36.53l21-12.18L32,0Z"/></g><g class="cls-1"><path class="cls-6" d="M32.07,32.91,43.86,47.57l0,15.68L32,64.26,20.18,49.6l0-15.68Zm5,26.29c1,.58,1.74.24,1.74-.68v-12A3.25,3.25,0,0,0,37.38,44l-.08,0c-.78-.45-1.47-.1-1.47.84l0,8.71L29,40.23A5.64,5.64,0,0,0,27,38c-1-.57-1.71-.22-1.71.7l0,12a3.24,3.24,0,0,0,1.46,2.53l.08,0a1,1,0,0,0,1,.1,1,1,0,0,0,.43-.95l0-8.7L35,57a5.5,5.5,0,0,0,2,2.24"/></g></svg>